<svg width="19" height="18" viewBox="0 0 19 18" fill="none" xmlns="http://www.w3.org/2000/svg">
<path d="M18.4971 16.7728L13.9986 12.4708C15.3025 10.9735 15.9527 9.05305 15.8139 7.10892C15.6751 5.1648 14.7581 3.34668 13.2536 2.0328C11.7491 0.718914 9.77298 0.0104163 7.73627 0.0546912C5.69957 0.0989661 3.75912 0.892605 2.31858 2.27051C0.878046 3.64842 0.0483332 5.5045 0.00204576 7.45265C-0.0442416 9.4008 0.69646 11.291 2.07007 12.7301C3.44367 14.1692 5.34443 15.0463 7.37692 15.1791C9.40942 15.3118 11.4172 14.6899 12.9825 13.4427L17.4801 17.7456C17.5469 17.8095 17.6262 17.8602 17.7134 17.8948C17.8007 17.9293 17.8942 17.9471 17.9886 17.9471C18.083 17.9471 18.1766 17.9293 18.2638 17.8948C18.3511 17.8602 18.4303 17.8095 18.4971 17.7456C18.5639 17.6818 18.6169 17.6059 18.653 17.5225C18.6892 17.439 18.7078 17.3496 18.7078 17.2592C18.7078 17.1689 18.6892 17.0794 18.653 16.996C18.6169 16.9125 18.5639 16.8367 18.4971 16.7728ZM1.45736 7.63423C1.45736 6.41046 1.83674 5.21417 2.54754 4.19664C3.25833 3.17911 4.26862 2.38604 5.45062 1.91772C6.63263 1.44941 7.93328 1.32687 9.1881 1.56562C10.4429 1.80437 11.5955 2.39367 12.5002 3.25901C13.4049 4.12434 14.021 5.22685 14.2706 6.42711C14.5202 7.62737 14.3921 8.87147 13.9025 10.0021C13.4129 11.1327 12.5837 12.0991 11.52 12.7789C10.4562 13.4588 9.20551 13.8217 7.92611 13.8217C6.21107 13.8199 4.56683 13.1674 3.35411 12.0074C2.1414 10.8475 1.45926 9.2747 1.45736 7.63423Z" fill="#00297A"/>
</svg>
