<svg width="178" height="160" viewBox="0 0 178 160" fill="none" xmlns="http://www.w3.org/2000/svg">
<g clip-path="url(#clip0_501_4816)">
<mask id="mask0_501_4816" style="mask-type:luminance" maskUnits="userSpaceOnUse" x="81" y="42" width="16" height="12">
<path d="M96.3447 49.7634V53.3206C96.3064 52.2989 96.0769 51.315 95.7325 50.4446C95.3881 49.5742 94.8142 48.7795 94.1637 48.1362C93.5132 47.4928 92.7097 46.963 91.8297 46.5846C90.9496 46.2062 89.993 46.017 88.9599 46.017C87.9268 46.017 86.932 46.2062 86.0519 46.5846C85.1719 46.963 84.3683 47.4928 83.7179 48.1362C83.0674 48.7795 82.5317 49.5742 82.1491 50.4446C81.7665 51.315 81.5751 52.2989 81.5751 53.3206V49.7634C81.5369 48.7416 81.7282 47.7577 82.0726 46.8873C82.4169 46.017 82.9909 45.2223 83.6414 44.5411C84.2918 43.8599 85.0953 43.3301 85.9754 42.9895C86.8554 42.6489 87.8503 42.4219 88.8834 42.4219C89.9165 42.4219 90.9113 42.6111 91.7914 42.9895C92.6714 43.3679 93.475 43.8978 94.1254 44.5411C94.7759 45.1844 95.3116 45.9791 95.6942 46.8873C96.0769 47.7956 96.2682 48.7416 96.2682 49.7634H96.3447Z" fill="white"/>
</mask>
<g mask="url(#mask0_501_4816)">
<path d="M96.345 49.7634V53.3206C96.3068 52.2989 96.0772 51.315 95.7328 50.4446C95.3885 49.5742 94.8145 48.7795 94.164 48.1362C93.5136 47.4928 92.71 46.963 91.83 46.5846C90.9499 46.2062 89.9934 46.017 88.9603 46.017C88.2715 46.017 87.621 46.0926 86.9706 46.2819C86.3201 46.4711 85.7462 46.6981 85.2105 47.0009C84.6748 47.3036 84.1774 47.682 83.7182 48.1362C83.259 48.5903 82.8764 49.0822 82.5703 49.612V46.017C82.8382 45.4872 83.2208 44.9574 83.6799 44.5411C84.1391 44.1248 84.6365 43.7085 85.1722 43.4058C85.7079 43.103 86.3201 42.8381 86.9706 42.6868C87.621 42.5354 88.2715 42.4219 88.9603 42.4219C89.9934 42.4219 90.9882 42.6111 91.8683 42.9895C92.7483 43.3679 93.5518 43.8978 94.2023 44.5411C94.8528 45.1844 95.3885 45.9791 95.7711 46.8873C96.1537 47.7956 96.345 48.7416 96.345 49.7634Z" fill="#666666"/>
<path d="M82.4927 46.0549V49.65C82.4927 49.65 82.4162 49.8392 82.3779 49.9528C82.3397 50.0663 82.2631 50.1798 82.2249 50.2555C82.1866 50.3312 82.1483 50.4826 82.0718 50.5961C81.9953 50.7096 81.9953 50.8231 81.957 50.9367V47.3416C81.957 47.3416 81.957 47.1145 82.0336 47.001C82.1101 46.8875 82.1101 46.7739 82.1866 46.6604C82.2631 46.5469 82.3014 46.4334 82.3397 46.3198C82.3779 46.2063 82.4544 46.0928 82.4927 46.0171" fill="#666666"/>
<path d="M81.9171 47.3794V50.9745C81.9171 50.9745 81.9171 51.1637 81.8788 51.2772C81.8405 51.3907 81.8405 51.4664 81.8023 51.58C81.764 51.6935 81.764 51.7692 81.7258 51.8827C81.6875 51.9962 81.6875 52.1098 81.6875 52.1854V48.5904C81.6875 48.5904 81.6875 48.3633 81.6875 48.2876C81.6875 48.2119 81.7258 48.0606 81.764 47.9849C81.8023 47.9092 81.8023 47.7957 81.8405 47.6821C81.8788 47.5686 81.9171 47.4929 81.9171 47.3794Z" fill="#666666"/>
<path d="M81.6125 48.6279V52.223C81.6125 52.223 81.6125 52.4122 81.6125 52.4879C81.6125 52.5636 81.6125 52.6771 81.6125 52.7528C81.6125 52.8285 81.6125 52.942 81.6125 53.0556C81.6125 53.1691 81.6125 53.2448 81.6125 53.3583V49.8011C81.6125 49.8011 81.5742 49.6118 81.5742 49.4983C81.5742 49.3848 81.5742 49.3091 81.5742 49.1956C81.5742 49.082 81.5742 49.0064 81.5742 48.8928C81.5742 48.7793 81.5742 48.7036 81.5742 48.6279" fill="#666666"/>
</g>
<mask id="mask1_501_4816" style="mask-type:luminance" maskUnits="userSpaceOnUse" x="96" y="93" width="1" height="5">
<path d="M96.3469 93.8125C96.3469 94.9099 96.3469 95.9695 96.3086 97.067V93.8125H96.3469Z" fill="white"/>
</mask>
<g mask="url(#mask1_501_4816)">
<path d="M96.3461 93.8125L96.2695 97.0292V96.9913V96.9535V96.9156L96.3461 93.6611V93.699V93.7368V93.7747V93.8125Z" fill="#666666"/>
</g>
<mask id="mask2_501_4816" style="mask-type:luminance" maskUnits="userSpaceOnUse" x="81" y="93" width="1" height="5">
<path d="M81.5773 97.0292L81.5391 93.8125V93.7747V93.7368V93.699V93.6611L81.5773 96.9156V96.9535V96.9913V97.0292Z" fill="white"/>
</mask>
<g mask="url(#mask2_501_4816)">
<path d="M81.5391 93.6611L81.5773 96.9156V96.9535V96.9913V97.0292L81.5391 93.8125V93.7747V93.7368V93.699V93.6611Z" fill="#666666"/>
</g>
<mask id="mask3_501_4816" style="mask-type:luminance" maskUnits="userSpaceOnUse" x="77" y="110" width="24" height="16">
<path d="M100.786 122.838L100.71 125.865C100.71 125.865 100.71 125.828 100.71 125.79C100.71 125.752 100.71 125.752 100.71 125.714C100.71 125.676 100.71 125.676 100.71 125.638C100.71 125.601 100.71 125.601 100.71 125.563C100.71 123.973 100.366 122.422 99.7916 121.022C99.2176 119.621 98.3376 118.373 97.2662 117.313C96.1949 116.253 94.9322 115.421 93.5164 114.815C92.1007 114.21 90.5702 113.907 88.9631 113.907C87.3561 113.907 85.7873 114.248 84.3716 114.815C82.9558 115.383 81.6931 116.253 80.6218 117.313C79.5504 118.373 78.7086 119.621 78.0964 121.022C77.4842 122.422 77.1781 123.935 77.1781 125.563V125.638V125.714C77.1781 125.714 77.1781 125.752 77.1781 125.79C77.1781 125.828 77.1781 125.828 77.1781 125.865L77.1016 122.838V122.762V122.687V122.611V122.535C77.1016 120.908 77.4459 119.394 78.0199 117.956C78.5938 116.518 79.4739 115.269 80.5452 114.21C81.6166 113.15 82.8793 112.28 84.295 111.674C85.7108 111.069 87.2796 110.766 88.9249 110.766C90.5702 110.766 92.1007 111.107 93.5164 111.674C94.9322 112.242 96.1949 113.112 97.2662 114.21C98.3376 115.307 99.2176 116.556 99.8299 117.956C100.442 119.356 100.748 120.908 100.748 122.535C100.748 122.535 100.748 122.573 100.748 122.611C100.748 122.649 100.748 122.649 100.748 122.687C100.748 122.724 100.748 122.724 100.748 122.762C100.748 122.8 100.748 122.8 100.748 122.838H100.786Z" fill="white"/>
</mask>
<g mask="url(#mask3_501_4816)">
<path d="M100.787 122.839L100.711 125.866C100.711 125.866 100.711 125.828 100.711 125.791C100.711 125.753 100.711 125.753 100.711 125.715C100.711 125.677 100.711 125.677 100.711 125.639C100.711 125.601 100.711 125.601 100.711 125.563C100.711 123.974 100.366 122.422 99.7923 121.022C99.2184 119.622 98.3383 118.373 97.267 117.314C96.1956 116.254 94.9329 115.422 93.5172 114.816C92.1014 114.211 90.5709 113.908 88.9639 113.908C87.8542 113.908 86.8211 114.059 85.788 114.324C84.7549 114.589 83.8366 115.005 82.9565 115.535C82.0765 116.065 81.273 116.67 80.546 117.389C79.819 118.108 79.2068 118.903 78.7093 119.773L78.6328 116.708C79.1302 115.838 79.7807 115.005 80.4694 114.286C81.1582 113.567 82 112.924 82.88 112.432C83.7601 111.94 84.7166 111.486 85.7498 111.221C86.7829 110.956 87.816 110.805 88.9256 110.805C90.5709 110.805 92.1014 111.145 93.5172 111.713C94.9329 112.281 96.1956 113.151 97.267 114.248C98.3383 115.346 99.2184 116.595 99.8306 117.995C100.443 119.395 100.749 120.947 100.749 122.574C100.749 122.574 100.749 122.612 100.749 122.65C100.749 122.687 100.749 122.687 100.749 122.725C100.749 122.763 100.749 122.763 100.749 122.801C100.749 122.839 100.749 122.839 100.749 122.877" fill="#666666"/>
<path d="M78.6324 116.708L78.7089 119.773C78.7089 119.773 78.5176 120.113 78.441 120.265C78.3645 120.416 78.288 120.605 78.1732 120.795C78.0584 120.984 78.0202 121.135 77.9436 121.324C77.8671 121.514 77.7906 121.703 77.7523 121.854L77.6758 118.789C77.6758 118.789 77.7906 118.41 77.8671 118.259C77.9436 118.108 78.0202 117.918 78.0967 117.729C78.1732 117.54 78.2497 117.389 78.3645 117.199C78.4793 117.01 78.5558 116.859 78.6324 116.708Z" fill="#666666"/>
<path d="M77.674 118.827L77.7505 121.892C77.7505 121.892 77.6357 122.195 77.5975 122.346C77.5592 122.497 77.5209 122.649 77.4827 122.838C77.4444 123.027 77.4062 123.179 77.3679 123.33C77.3296 123.481 77.2914 123.671 77.2914 123.822L77.2148 120.794C77.2148 120.794 77.2531 120.454 77.2914 120.303C77.3296 120.151 77.3679 119.962 77.4062 119.811C77.4444 119.659 77.4827 119.47 77.5209 119.319C77.5592 119.167 77.5975 119.016 77.674 118.827Z" fill="#666666"/>
<path d="M77.2172 120.757L77.2937 123.784C77.2937 123.784 77.2554 124.087 77.2554 124.2C77.2554 124.314 77.2554 124.503 77.2172 124.617C77.1789 124.73 77.2172 124.919 77.2172 125.071C77.2172 125.222 77.2172 125.373 77.2172 125.525C77.2172 125.525 77.2172 125.563 77.2172 125.6C77.2172 125.638 77.2172 125.638 77.2172 125.676C77.2172 125.714 77.2172 125.714 77.2172 125.752C77.2172 125.79 77.2172 125.79 77.2172 125.828L77.1406 122.8C77.1406 122.8 77.1406 122.762 77.1406 122.724C77.1406 122.687 77.1406 122.687 77.1406 122.649C77.1406 122.611 77.1406 122.611 77.1406 122.573C77.1406 122.535 77.1406 122.535 77.1406 122.497C77.1406 122.346 77.1406 122.195 77.1406 122.043C77.1406 121.892 77.1406 121.741 77.1406 121.589C77.1406 121.438 77.1406 121.286 77.1789 121.135C77.2172 120.984 77.1789 120.832 77.2172 120.719" fill="#666666"/>
<path d="M77.1016 122.8L77.1781 125.828V125.866V125.903L77.1016 122.876V122.838V122.8Z" fill="#666666"/>
</g>
<path d="M176.966 140.359C176.813 140.927 176.583 141.457 176.392 141.987C176.392 142.025 176.392 142.062 176.353 142.1C176.162 142.554 175.971 143.008 175.741 143.463C175.703 143.576 175.626 143.652 175.588 143.765C175.359 144.257 175.091 144.787 174.785 145.279C173.675 147.133 172.374 148.836 170.882 150.312C169.389 151.788 167.744 153.037 165.946 154.059C164.147 155.08 162.234 155.875 160.206 156.405C158.178 156.935 156.074 157.2 153.855 157.2H23.9896C21.8469 157.2 19.7424 156.935 17.7145 156.405C15.6865 155.875 13.7734 155.08 11.975 154.059C10.1767 153.037 8.53135 151.788 7.03909 150.312C5.54682 148.836 4.28414 147.171 3.17451 145.279C2.86841 144.749 2.5623 144.182 2.29446 143.652C2.02662 143.084 1.79704 142.554 1.56746 141.987C1.33788 141.419 1.14657 140.851 0.955251 140.284C0.763936 139.716 0.610883 139.148 0.496094 138.543L1.14657 141.457C1.26136 142.025 1.41441 142.592 1.60572 143.16C1.79704 143.727 1.98836 144.295 2.17967 144.863C2.40925 145.43 2.63883 145.96 2.90667 146.528C3.17451 147.095 3.44235 147.625 3.74846 148.155C4.81983 150.009 6.12077 151.674 7.57477 153.15C9.02877 154.588 10.6741 155.837 12.4724 156.859C14.2326 157.881 16.1457 158.638 18.1737 159.167C20.1633 159.697 22.2678 159.962 24.4105 159.962H153.319C155.5 159.962 157.604 159.697 159.594 159.167C161.584 158.638 163.497 157.881 165.295 156.859C167.055 155.837 168.701 154.626 170.193 153.15C171.685 151.712 172.986 150.047 174.058 148.155C174.058 148.155 174.058 148.117 174.058 148.079C174.058 148.079 174.058 148.042 174.058 148.004C174.058 148.004 174.058 147.966 174.058 147.928C174.058 147.928 174.058 147.89 174.058 147.852C174.249 147.512 174.44 147.171 174.593 146.831C174.632 146.755 174.67 146.679 174.708 146.604C174.708 146.566 174.746 146.528 174.785 146.49C174.785 146.414 174.823 146.376 174.861 146.301C174.938 146.149 175.014 145.96 175.091 145.809C175.205 145.506 175.359 145.241 175.473 144.938C175.473 144.938 175.473 144.863 175.512 144.863C175.512 144.863 175.512 144.863 175.512 144.825C175.665 144.484 175.779 144.106 175.894 143.765C175.971 143.576 176.009 143.425 176.047 143.235C176.086 143.046 176.162 142.857 176.2 142.668C176.239 142.479 176.315 142.289 176.353 142.1C176.392 141.911 176.43 141.722 176.506 141.533L177.157 138.619C177.042 139.186 176.889 139.754 176.698 140.322L176.966 140.359Z" fill="#6E6E6E"/>
<path d="M174.595 121.628C175.704 123.482 176.546 125.45 177.12 127.418C177.694 129.386 177.962 131.429 178 133.473C178.038 135.516 177.732 137.522 177.196 139.528C176.661 141.533 175.857 143.463 174.786 145.318C173.676 147.172 172.375 148.875 170.883 150.351C169.391 151.827 167.745 153.075 165.947 154.097C164.149 155.119 162.236 155.914 160.208 156.444C158.18 156.973 156.075 157.238 153.856 157.238H23.991C21.8482 157.238 19.7438 156.973 17.7158 156.444C15.6879 155.914 13.7747 155.119 11.9764 154.097C10.178 153.075 8.53267 151.827 7.04041 150.351C5.54815 148.875 4.28547 147.21 3.17584 145.318C2.10447 143.463 1.30095 141.496 0.765262 139.528C0.229579 137.56 0 135.516 0 133.511C0 131.505 0.267842 129.461 0.803525 127.456C1.33921 125.45 2.14273 123.52 3.2141 121.666L68.3379 11.732C69.4093 9.91558 70.672 8.25049 72.1642 6.81246C73.6565 5.37443 75.2635 4.12561 77.0236 3.1417C78.7837 2.15778 80.6969 1.36308 82.6866 0.833276C84.6763 0.303475 86.7807 0.0385742 88.9235 0.0385742C91.0662 0.0385742 93.1707 0.303475 95.1604 0.833276C97.15 1.36308 99.1015 2.11994 100.9 3.1417C102.698 4.16346 104.344 5.37443 105.798 6.81246C107.252 8.25049 108.552 9.91558 109.624 11.732L174.556 121.628H174.595ZM81.5387 49.7642V93.662C81.5387 94.6838 81.73 95.6677 82.1126 96.5381C82.4953 97.4085 83.031 98.2032 83.6814 98.8465C84.3319 99.4899 85.1354 100.02 86.0155 100.398C86.8955 100.777 87.8904 100.966 88.9235 100.966C89.9566 100.966 90.9514 100.777 91.8315 100.398C92.7115 100.02 93.5151 99.4899 94.1655 98.8465C94.816 98.2032 95.3899 97.4085 95.7343 96.5381C96.0787 95.6677 96.3083 94.6838 96.3083 93.662V49.7642C96.3083 48.7425 96.1169 47.7585 95.7343 46.8882C95.3517 46.0178 94.816 45.2231 94.1655 44.5419C93.5151 43.8607 92.7115 43.3309 91.8315 42.9903C90.9514 42.6497 89.9566 42.4227 88.9235 42.4227C87.8904 42.4227 86.8955 42.6119 86.0155 42.9903C85.1354 43.3688 84.3319 43.8986 83.6814 44.5419C83.031 45.1852 82.4953 45.9799 82.1126 46.8882C81.73 47.7964 81.5387 48.7425 81.5387 49.7642ZM88.9235 134.23C90.5688 134.23 92.0993 133.889 93.5151 133.321C94.9308 132.754 96.1935 131.883 97.2648 130.786C98.3362 129.689 99.2163 128.478 99.8285 127.077C100.441 125.677 100.747 124.126 100.747 122.536C100.747 120.947 100.402 119.395 99.8285 117.957C99.2545 116.519 98.3362 115.27 97.2648 114.211C96.1935 113.151 94.9308 112.281 93.5151 111.675C92.0993 111.07 90.5305 110.767 88.9235 110.767C87.3164 110.767 85.7476 111.108 84.2936 111.675C82.8396 112.243 81.6152 113.113 80.5439 114.211C79.4725 115.308 78.5924 116.557 78.0185 117.957C77.4445 119.357 77.1002 120.909 77.1002 122.536C77.1002 124.163 77.4445 125.677 78.0185 127.077C78.5924 128.478 79.4725 129.726 80.5439 130.786C81.6152 131.846 82.8779 132.716 84.2936 133.321C85.7094 133.927 87.2782 134.23 88.9235 134.23Z" fill="url(#paint0_linear_501_4816)"/>
</g>
<defs>
<linearGradient id="paint0_linear_501_4816" x1="0" y1="78.6005" x2="178" y2="78.6005" gradientUnits="userSpaceOnUse">
<stop stop-color="#F0F2F2"/>
<stop offset="0.18" stop-color="#E7EAEA"/>
<stop offset="0.47" stop-color="#CFD4D6"/>
<stop offset="0.83" stop-color="#A9B2B5"/>
<stop offset="1" stop-color="#95A0A4"/>
</linearGradient>
<clipPath id="clip0_501_4816">
<rect width="178" height="160" fill="white"/>
</clipPath>
</defs>
</svg>
