<svg width="183" height="185" viewBox="0 0 183 185" fill="none" xmlns="http://www.w3.org/2000/svg">
<g clip-path="url(#clip0_501_4857)">
<path d="M21.3382 0C24.2867 0 27.08 0.580544 29.6018 1.66423C32.1235 2.74791 34.4512 4.29602 36.3522 6.19247C38.2532 8.08891 39.8439 10.3724 40.8914 12.9268C41.9388 15.4812 42.5596 18.2291 42.5596 21.1705C42.5596 24.1119 41.9776 26.8985 40.8914 29.4142C39.8051 31.9299 38.2532 34.2134 36.3522 36.1485C34.4512 38.0837 32.1235 39.5931 29.6018 40.6768C27.08 41.7605 24.2479 42.341 21.2995 42.341C18.351 42.341 15.5577 41.7605 12.9971 40.6768C10.4366 39.5931 8.14766 38.045 6.24666 36.1485C4.34567 34.2521 2.75504 31.9686 1.70755 29.4142C0.660063 26.8598 0.078125 24.0732 0.078125 21.1705C0.078125 18.2678 0.660063 15.4425 1.74635 12.9268C2.83263 10.4111 4.38446 8.12761 6.28546 6.19247C8.18646 4.25732 10.5142 2.74791 13.0359 1.66423C15.5577 0.580544 18.3898 0 21.2995 0L21.3382 0Z" fill="url(#paint0_linear_501_4857)"/>
<path d="M42.4836 19.1968L42.8327 23.1445C42.8327 23.1445 42.8328 23.4541 42.8715 23.6476C42.9103 23.8411 42.8715 23.9572 42.8715 24.1508C42.8715 24.3443 42.8715 24.4604 42.8715 24.6539C42.8715 24.8474 42.8715 25.0022 42.8715 25.157C42.8715 28.0597 42.2896 30.8464 41.2033 33.362C40.117 35.8777 38.604 38.1225 36.703 40.0577C34.802 41.9928 32.5131 43.5022 29.9913 44.5472C27.4696 45.5922 24.6763 46.2114 21.7666 46.2114C19.1673 46.2114 16.6456 45.747 14.3566 44.8955C12.0676 44.0441 9.93387 42.8056 8.11047 41.2187C6.28706 39.6319 4.69643 37.8129 3.49376 35.7229C2.29109 33.633 1.43758 31.3108 1.01083 28.8338L0.3125 24.9248C0.739254 27.4018 1.59276 29.7627 2.83423 31.8526C4.0757 33.9426 5.62753 35.839 7.48973 37.4259C9.35193 39.0127 11.4857 40.2512 13.7747 41.1026C16.0636 41.9541 18.6241 42.4572 21.2235 42.4572C24.1719 42.4572 26.9652 41.8767 29.5258 40.793C32.0863 39.7093 34.3753 38.1612 36.2763 36.2648C38.1772 34.3683 39.7679 32.0849 40.8154 29.5305C41.8629 26.9761 42.4836 24.2282 42.4836 21.2867C42.4836 21.1319 42.4836 20.9384 42.4836 20.7836C42.4836 20.6288 42.4836 20.4353 42.4836 20.2805C42.4836 20.1256 42.4836 19.9708 42.4836 19.7773C42.4836 19.5838 42.4836 19.4677 42.4448 19.2742L42.4836 19.1968Z" fill="#6E6E6E"/>
<mask id="mask0_501_4857" style="mask-type:luminance" maskUnits="userSpaceOnUse" x="0" y="19" width="43" height="28">
<path d="M42.4836 19.1968L42.8327 23.1445C42.8327 23.1445 42.8328 23.4541 42.8715 23.6476C42.9103 23.8411 42.8715 23.9572 42.8715 24.1508C42.8715 24.3443 42.8715 24.4604 42.8715 24.6539C42.8715 24.8474 42.8715 25.0022 42.8715 25.157C42.8715 28.0597 42.2896 30.8464 41.2033 33.362C40.117 35.8777 38.604 38.1225 36.703 40.0577C34.802 41.9928 32.5131 43.5022 29.9913 44.5472C27.4696 45.5922 24.6763 46.2114 21.7666 46.2114C19.1673 46.2114 16.6456 45.747 14.3566 44.8955C12.0676 44.0441 9.93387 42.8056 8.11047 41.2187C6.28706 39.6319 4.69643 37.8129 3.49376 35.7229C2.29109 33.633 1.43758 31.3108 1.01083 28.8338L0.3125 24.9248C0.739254 27.4018 1.59276 29.7627 2.83423 31.8526C4.0757 33.9426 5.62753 35.839 7.48973 37.4259C9.35193 39.0127 11.4857 40.2512 13.7747 41.1026C16.0636 41.9541 18.6241 42.4572 21.2235 42.4572C24.1719 42.4572 26.9652 41.8767 29.5258 40.793C32.0863 39.7093 34.3753 38.1612 36.2763 36.2648C38.1772 34.3683 39.7679 32.0849 40.8154 29.5305C41.8629 26.9761 42.4836 24.2282 42.4836 21.2867C42.4836 21.1319 42.4836 20.9384 42.4836 20.7836C42.4836 20.6288 42.4836 20.4353 42.4836 20.2805C42.4836 20.1256 42.4836 19.9708 42.4836 19.7773C42.4836 19.5838 42.4836 19.4677 42.4448 19.2742L42.4836 19.1968Z" fill="white"/>
</mask>
<g mask="url(#mask0_501_4857)">
<path d="M42.4844 19.1968L42.8335 23.1445C42.8335 23.1445 42.8335 23.3767 42.8335 23.4928C42.8335 23.6089 42.8335 23.725 42.8335 23.8411C42.8335 23.9572 42.8335 24.0733 42.8335 24.1895C42.8335 24.3056 42.8335 24.4217 42.8335 24.5378L42.4844 20.5901C42.4844 20.5901 42.4844 20.3579 42.4844 20.2418C42.4844 20.1256 42.4844 20.0095 42.4844 19.8934C42.4844 19.7773 42.4844 19.6612 42.4844 19.5451C42.4844 19.429 42.4844 19.3129 42.4844 19.1968Z" fill="#6E6E6E"/>
<path d="M42.6 20.6289L42.9491 24.5766C42.9491 24.5766 42.9491 24.654 42.9491 24.6927C42.9491 24.7314 42.9491 24.7701 42.9491 24.8088C42.9491 24.8475 42.9491 24.8862 42.9491 24.9249C42.9491 24.9636 42.9491 25.0023 42.9491 25.041C42.9491 25.312 42.9491 25.5829 42.9491 25.8538C42.9491 26.1247 42.9491 26.3956 42.9103 26.6279C42.8715 26.8601 42.8715 27.1697 42.8327 27.4019C42.7939 27.6341 42.7551 27.9051 42.7164 28.176L42.3672 24.267C42.406 23.9961 42.4448 23.7638 42.4836 23.4929C42.5224 23.222 42.5224 22.9511 42.5612 22.7189C42.6 22.4866 42.5612 22.177 42.6 21.9061C42.6388 21.6352 42.6 21.3643 42.6 21.0933C42.6 21.0546 42.6 21.0159 42.6 20.9772C42.6 20.9385 42.6 20.8998 42.6 20.8611C42.6 20.8224 42.6 20.7837 42.6 20.745C42.6 20.7063 42.6 20.6676 42.6 20.6289Z" fill="#6E6E6E"/>
<path d="M42.3689 24.3444L42.718 28.2534C42.6792 28.563 42.6404 28.8339 42.5628 29.1435C42.4853 29.4532 42.4465 29.7241 42.3689 30.0337C42.2913 30.3433 42.2137 30.6142 42.1361 30.8852C42.0585 31.1561 41.9809 31.4657 41.8645 31.7366L41.4766 27.8276C41.5542 27.5567 41.6705 27.2471 41.7481 26.9762C41.8257 26.7052 41.9033 26.3956 41.9809 26.086C42.0585 25.7764 42.0973 25.5055 42.1749 25.1958C42.2525 24.8862 42.2913 24.6153 42.3301 24.3057" fill="#6E6E6E"/>
<path d="M41.5159 27.8662L41.9038 31.7752C41.7874 32.1235 41.6711 32.4332 41.5547 32.7428C41.4383 33.0524 41.2831 33.4007 41.1667 33.7104C41.0503 34.02 40.8951 34.3296 40.74 34.6392C40.5848 34.9488 40.4296 35.2585 40.2356 35.5294L39.8477 31.6591C40.0028 31.3495 40.1968 31.0399 40.352 30.7302C40.5072 30.4206 40.6624 30.111 40.8176 29.8014C40.9727 29.4917 41.0891 29.1821 41.2055 28.8338C41.3219 28.4855 41.4383 28.1758 41.5547 27.8662" fill="#6E6E6E"/>
<path d="M39.8072 31.6589L40.1952 35.5292C39.3029 37.116 38.1778 38.5867 36.8975 39.8639C35.6173 41.1411 34.1818 42.2635 32.5912 43.1924C31.0005 44.1212 29.2935 44.8566 27.5089 45.3597C25.7243 45.8629 23.7845 46.1338 21.8447 46.1338C19.2454 46.1338 16.7237 45.6693 14.4347 44.8179C12.1458 43.9664 10.012 42.7279 8.18859 41.1411C6.36519 39.5543 4.77456 37.7352 3.57188 35.6453C2.36921 33.5553 1.5157 31.2331 1.08895 28.7562L0.390625 24.8472C0.817379 27.3242 1.67089 29.685 2.91236 31.775C4.15382 33.8649 5.70566 35.7614 7.56786 37.3482C9.43006 38.935 11.5638 40.1735 13.8528 41.025C16.1417 41.8765 18.7023 42.3796 21.3016 42.3796C23.2802 42.3796 25.22 42.1087 27.0046 41.6055C28.7892 41.1024 30.535 40.367 32.1256 39.4382C33.7163 38.5093 35.1517 37.3482 36.432 36.071C37.7122 34.7938 38.8373 33.3231 39.7296 31.6976" fill="#6E6E6E"/>
</g>
<path d="M182.613 24.77L181.915 28.679C181.488 31.156 180.635 33.4782 179.393 35.5681C178.152 37.6581 176.6 39.5158 174.776 41.1026C172.953 42.6895 170.819 43.9279 168.53 44.7794C166.241 45.6309 163.72 46.0953 161.12 46.0953C158.211 46.0953 155.417 45.5148 152.896 44.4311C150.374 43.3474 148.085 41.838 146.184 39.9415C144.283 38.0451 142.731 35.7616 141.645 33.2459C140.558 30.7303 139.977 27.9823 139.977 25.0796C139.977 24.9248 139.977 24.77 139.977 24.5765C139.977 24.383 139.977 24.2669 139.977 24.0733C139.977 23.8798 139.977 23.7637 139.977 23.6089C139.977 23.4541 139.977 23.2993 139.977 23.1445L140.326 19.1968C140.326 19.1968 140.326 19.5064 140.287 19.6612C140.248 19.816 140.287 19.9708 140.287 20.1644C140.287 20.3579 140.287 20.474 140.287 20.6675C140.287 20.861 140.287 20.9771 140.287 21.1706C140.287 24.0733 140.869 26.86 141.955 29.4144C143.041 31.9687 144.593 34.2135 146.533 36.1487C148.473 38.0838 150.762 39.6319 153.322 40.6769C155.883 41.7219 158.676 42.3411 161.586 42.3411C164.224 42.3411 166.707 41.8767 169.035 40.9865C171.362 40.0964 173.496 38.8579 175.32 37.271C177.143 35.6842 178.772 33.8265 179.975 31.6978C181.178 29.5692 182.07 27.247 182.497 24.77H182.613Z" fill="#6E6E6E"/>
<mask id="mask1_501_4857" style="mask-type:luminance" maskUnits="userSpaceOnUse" x="139" y="19" width="44" height="28">
<path d="M182.613 24.77L181.915 28.679C181.488 31.156 180.635 33.4782 179.393 35.5681C178.152 37.6581 176.6 39.5158 174.776 41.1026C172.953 42.6895 170.819 43.9279 168.53 44.7794C166.241 45.6309 163.72 46.0953 161.12 46.0953C158.211 46.0953 155.417 45.5148 152.896 44.4311C150.374 43.3474 148.085 41.838 146.184 39.9415C144.283 38.0451 142.731 35.7616 141.645 33.2459C140.558 30.7303 139.977 27.9823 139.977 25.0796C139.977 24.9248 139.977 24.77 139.977 24.5765C139.977 24.383 139.977 24.2669 139.977 24.0733C139.977 23.8798 139.977 23.7637 139.977 23.6089C139.977 23.4541 139.977 23.2993 139.977 23.1445L140.326 19.1968C140.326 19.1968 140.326 19.5064 140.287 19.6612C140.248 19.816 140.287 19.9708 140.287 20.1644C140.287 20.3579 140.287 20.474 140.287 20.6675C140.287 20.861 140.287 20.9771 140.287 21.1706C140.287 24.0733 140.869 26.86 141.955 29.4144C143.041 31.9687 144.593 34.2135 146.533 36.1487C148.473 38.0838 150.762 39.6319 153.322 40.6769C155.883 41.7219 158.676 42.3411 161.586 42.3411C164.224 42.3411 166.707 41.8767 169.035 40.9865C171.362 40.0964 173.496 38.8579 175.32 37.271C177.143 35.6842 178.772 33.8265 179.975 31.6978C181.178 29.5692 182.07 27.247 182.497 24.77H182.613Z" fill="white"/>
</mask>
<g mask="url(#mask1_501_4857)">
<path d="M182.615 24.77L181.917 28.679C181.878 28.9499 181.839 29.1822 181.761 29.4531C181.684 29.724 181.645 29.9562 181.567 30.2271C181.49 30.4981 181.451 30.7303 181.373 30.9625C181.296 31.1947 181.218 31.4656 181.141 31.6978L181.8 27.7888C181.878 27.5566 181.955 27.2857 182.033 27.0535C182.111 26.8213 182.188 26.5504 182.227 26.3181C182.266 26.0859 182.343 25.815 182.421 25.5441C182.498 25.2732 182.537 25.0409 182.576 24.77" fill="#6E6E6E"/>
<path d="M181.836 27.8276L181.176 31.7366C181.06 32.085 180.943 32.3946 180.827 32.7042C180.71 33.0138 180.555 33.3622 180.439 33.6718C180.323 33.9814 180.167 34.291 180.012 34.6006C179.857 34.9103 179.702 35.2199 179.508 35.4908L180.167 31.6205C180.323 31.3109 180.517 31.0013 180.672 30.6917C180.827 30.382 180.982 30.0724 181.137 29.7628C181.292 29.4532 181.409 29.1435 181.525 28.7952C181.642 28.4469 181.758 28.1373 181.874 27.8276" fill="#6E6E6E"/>
<path d="M180.169 31.6208L179.51 35.4911C178.617 37.0779 177.492 38.5486 176.212 39.8258C174.932 41.103 173.496 42.2641 171.906 43.193C170.315 44.1218 168.608 44.8572 166.824 45.3603C165.039 45.8635 163.099 46.1344 161.159 46.1344C158.25 46.1344 155.456 45.5538 152.935 44.4701C150.413 43.3865 148.124 41.8771 146.223 39.9806C144.322 38.0842 142.77 35.8007 141.684 33.285C140.598 30.7693 140.016 28.0214 140.016 25.1187C140.016 24.9639 140.016 24.8091 140.016 24.6155C140.016 24.422 140.016 24.3059 140.016 24.1124C140.016 23.9189 140.016 23.8028 140.016 23.648C140.016 23.4932 140.016 23.3384 140.016 23.1835L140.365 19.2358C140.365 19.2358 140.365 19.5455 140.326 19.7003C140.287 19.8551 140.326 20.0099 140.326 20.2034C140.326 20.3969 140.326 20.513 140.326 20.7066C140.326 20.9001 140.326 21.0162 140.326 21.2097C140.326 24.1124 140.908 26.899 141.994 29.4534C143.08 32.0078 144.632 34.2526 146.572 36.1877C148.512 38.1229 150.801 39.671 153.361 40.716C155.922 41.7609 158.715 42.3802 161.625 42.3802C163.604 42.3802 165.505 42.1093 167.328 41.6061C169.151 41.103 170.858 40.3676 172.449 39.4388C174.04 38.5099 175.475 37.3488 176.794 36.0716C178.113 34.7944 179.199 33.285 180.092 31.6982" fill="#6E6E6E"/>
</g>
<path d="M161.662 0C164.611 0 167.404 0.580544 169.926 1.66423C172.448 2.74791 174.775 4.29602 176.676 6.19247C178.577 8.08891 180.168 10.3724 181.254 12.9268C182.341 15.4812 182.923 18.2291 182.923 21.1705C182.923 24.1119 182.341 26.8598 181.254 29.4142C180.168 31.9686 178.616 34.2134 176.715 36.1485C174.814 38.0837 172.487 39.6318 169.965 40.6768C167.443 41.7218 164.611 42.341 161.701 42.341C158.792 42.341 155.959 41.7605 153.438 40.6768C150.916 39.5931 148.588 38.045 146.648 36.1485C144.709 34.2521 143.157 31.9686 142.071 29.4142C140.984 26.8598 140.402 24.1119 140.402 21.1705C140.402 18.2291 140.984 15.4812 142.071 12.9268C143.157 10.3724 144.709 8.12761 146.648 6.19247C148.588 4.25732 150.877 2.7092 153.399 1.66423C155.921 0.619247 158.753 0 161.662 0Z" fill="url(#paint1_linear_501_4857)"/>
<path d="M115.729 85.2627L115.535 88.746H67.4284L67.2344 85.2627H115.729Z" fill="#6E6E6E"/>
<path d="M91.4818 24.6924C95.0898 28.9884 98.3486 33.5167 101.181 38.2771C104.013 43.0376 106.496 47.9915 108.513 53.1003C110.531 58.2091 112.199 63.5114 113.401 68.8911C114.604 74.2708 115.38 79.7667 115.69 85.3012H67.2344C67.5835 79.728 68.3595 74.2321 69.5621 68.8524C70.7648 63.4727 72.3942 58.2091 74.4504 53.1003C76.5066 47.9915 78.9507 43.0376 81.7828 38.3158C84.6149 33.5941 87.8738 29.0271 91.4818 24.7698V24.6924Z" fill="url(#paint2_linear_501_4857)"/>
<path d="M157.862 85.2627L157.357 88.746H122.945L123.178 85.2627H157.862Z" fill="#6E6E6E"/>
<path d="M59.8241 85.2627L60.0569 88.746H25.645L25.1406 85.2627H59.8241Z" fill="#6E6E6E"/>
<path d="M83.0241 23.3379L83.1017 27.2856C79.6877 31.659 76.6228 36.3034 73.9071 41.1412C71.1914 45.9791 68.8637 51.0105 66.9239 56.1967C64.9841 61.3829 63.4322 66.7239 62.2684 72.1423C61.1045 77.5607 60.3674 83.1339 60.057 88.7458L59.8242 85.2626C60.1346 79.612 60.9105 74.0387 62.0744 68.5429C63.2383 63.0471 64.7901 57.6674 66.7687 52.4812C68.7473 47.295 71.075 42.1862 73.7907 37.3096C76.5064 32.4331 79.6101 27.7887 83.0629 23.3379H83.0241Z" fill="#6E6E6E"/>
<mask id="mask2_501_4857" style="mask-type:luminance" maskUnits="userSpaceOnUse" x="59" y="23" width="25" height="66">
<path d="M83.0241 23.3379L83.1017 27.2856C79.6877 31.659 76.6228 36.3034 73.9071 41.1412C71.1914 45.9791 68.8637 51.0105 66.9239 56.1967C64.9841 61.3829 63.4322 66.7239 62.2684 72.1423C61.1045 77.5607 60.3674 83.1339 60.057 88.7458L59.8242 85.2626C60.1346 79.612 60.9105 74.0387 62.0744 68.5429C63.2383 63.0471 64.7901 57.6674 66.7687 52.4812C68.7473 47.295 71.075 42.1862 73.7907 37.3096C76.5064 32.4331 79.6101 27.7887 83.0629 23.3379H83.0241Z" fill="white"/>
</mask>
<g mask="url(#mask2_501_4857)">
<path d="M83.0254 23.338L83.103 27.2857C82.2883 28.3307 81.5124 29.3757 80.7365 30.4207C79.9605 31.4656 79.2234 32.5493 78.4863 33.633C77.7492 34.7167 77.0509 35.8004 76.3525 36.9227C75.6542 38.0451 74.9947 39.1675 74.3351 40.2899L74.2188 36.4583C74.8783 35.3359 75.5378 34.1748 76.2361 33.0525C76.9345 31.9301 77.6328 30.8464 78.3699 29.724C79.107 28.6016 79.8442 27.5566 80.6201 26.473C81.396 25.3893 82.1719 24.3443 82.9866 23.2993" fill="#6E6E6E"/>
<path d="M74.2553 36.4585L74.3717 40.2901C73.4794 41.8769 72.6259 43.4637 71.8112 45.0505C70.9965 46.6374 70.2206 48.3016 69.4835 49.9658C68.7463 51.63 68.048 53.2943 67.3885 54.9585C66.729 56.6227 66.1082 58.3644 65.5651 60.0673L65.3711 56.3905C65.953 54.6489 66.5738 52.9459 67.2333 51.243C67.8928 49.5401 68.5912 47.8759 69.3283 46.2116C70.0654 44.5474 70.8413 42.8832 71.6948 41.2577C72.5483 39.6321 73.4018 38.0453 74.2941 36.4585" fill="#6E6E6E"/>
<path d="M65.3326 56.4288L65.5266 60.1056C65.0222 61.615 64.5567 63.1245 64.1299 64.6339C63.7032 66.1433 63.2764 67.6914 62.9273 69.2395C62.5781 70.7876 62.229 72.3357 61.9186 73.8839C61.6082 75.432 61.3366 77.0188 61.1039 78.6056L60.8711 75.0449C61.1039 73.4581 61.3754 71.8713 61.6858 70.2845C61.9962 68.6977 62.3453 67.1496 62.6945 65.6014C63.0437 64.0533 63.4704 62.5052 63.8972 60.9571C64.3239 59.409 64.7895 57.8996 65.2938 56.3901" fill="#6E6E6E"/>
<path d="M60.8714 75.084L61.1042 78.6447C60.9878 79.4961 60.8714 80.3089 60.7551 81.1603C60.6387 82.0118 60.5611 82.8633 60.4447 83.676C60.3283 84.4888 60.2895 85.379 60.2119 86.2304C60.1343 87.0819 60.0955 87.9334 60.0179 88.7848L59.7852 85.3016C59.824 84.4501 59.9015 83.5986 59.9791 82.7472C60.0567 81.8957 60.1343 81.0442 60.2119 80.1928C60.2895 79.3413 60.4059 78.4898 60.5223 77.6384C60.6387 76.7869 60.7551 75.9354 60.8714 75.084Z" fill="#6E6E6E"/>
</g>
<path d="M83.024 23.3379C79.5712 27.75 76.4675 32.4331 73.7518 37.3096C71.0361 42.1862 68.6696 47.2563 66.7298 52.4812C64.79 57.7061 63.1993 63.0858 62.0355 68.5429C60.8716 74 60.1345 79.6119 59.7853 85.2626H25.1406C25.5674 77.2511 27.4684 69.6266 30.4945 62.6214C33.5205 55.6161 37.7881 49.2689 42.9479 43.773C48.1078 38.2772 54.1987 33.6716 60.9492 30.1883C67.6997 26.705 75.1485 24.3442 83.024 23.3379Z" fill="url(#paint3_linear_501_4857)"/>
<path d="M99.9375 23.338C107.813 24.3056 115.262 26.6665 122.012 30.1884C128.763 33.7104 134.854 38.2774 140.014 43.7732C145.173 49.269 149.402 55.655 152.467 62.6215C155.532 69.588 157.394 77.2512 157.86 85.2627H123.176C122.866 79.6121 122.129 74.0389 121.004 68.543C119.879 63.0472 118.288 57.7062 116.348 52.4813C114.408 47.2564 112.042 42.1863 109.287 37.3098C106.533 32.4332 103.429 27.7502 99.9375 23.2993V23.338Z" fill="url(#paint4_linear_501_4857)"/>
<path d="M123.175 85.2627L122.943 88.746C122.632 83.134 121.934 77.5995 120.77 72.1424C119.606 66.6853 118.093 61.383 116.115 56.1968C114.136 51.0106 111.808 45.9792 109.093 41.1414C106.377 36.3035 103.273 31.6591 99.8203 27.247L99.8979 23.2993C103.39 27.7502 106.493 32.4332 109.248 37.3098C112.002 42.1863 114.33 47.2564 116.309 52.4813C118.287 57.7062 119.839 63.0472 120.964 68.543C122.089 74.0389 122.826 79.6121 123.137 85.2627H123.175Z" fill="#6E6E6E"/>
<mask id="mask3_501_4857" style="mask-type:luminance" maskUnits="userSpaceOnUse" x="99" y="23" width="25" height="66">
<path d="M123.175 85.2627L122.943 88.746C122.632 83.134 121.934 77.5995 120.77 72.1424C119.606 66.6853 118.093 61.383 116.115 56.1968C114.136 51.0106 111.808 45.9792 109.093 41.1414C106.377 36.3035 103.273 31.6591 99.8203 27.247L99.8979 23.2993C103.39 27.7502 106.493 32.4332 109.248 37.3098C112.002 42.1863 114.33 47.2564 116.309 52.4813C118.287 57.7062 119.839 63.0472 120.964 68.543C122.089 74.0389 122.826 79.6121 123.137 85.2627H123.175Z" fill="white"/>
</mask>
<g mask="url(#mask3_501_4857)">
<path d="M123.175 85.2627L122.943 88.746C122.632 83.134 121.934 77.5995 120.77 72.1424C119.606 66.6853 118.093 61.383 116.115 56.1968C114.136 51.0106 111.808 45.9792 109.093 41.1414C106.377 36.3035 103.273 31.6591 99.8203 27.247L99.8979 23.2993C103.39 27.7502 106.493 32.4332 109.248 37.3098C112.002 42.1863 114.33 47.2564 116.309 52.4813C118.287 57.7062 119.839 63.0472 120.964 68.543C122.089 74.0389 122.826 79.6121 123.137 85.2627" fill="#6E6E6E"/>
</g>
<mask id="mask4_501_4857" style="mask-type:luminance" maskUnits="userSpaceOnUse" x="122" y="92" width="2" height="6">
<path d="M123.1 93.8933C123.022 95.0157 122.945 96.1767 122.867 97.2991C122.867 97.183 122.867 97.1056 122.867 96.9895C122.867 96.8734 122.867 96.796 122.867 96.6799C122.867 96.5638 122.867 96.4864 122.867 96.3703C122.867 96.2542 122.867 96.1767 122.867 96.0606L123.1 92.6548C123.1 92.6548 123.1 92.8483 123.1 92.9644C123.1 93.0805 123.1 93.1579 123.1 93.274C123.1 93.3901 123.1 93.4675 123.1 93.5837C123.1 93.6998 123.1 93.7772 123.1 93.8933Z" fill="white"/>
</mask>
<g mask="url(#mask4_501_4857)">
<path d="M123.1 93.8933L122.867 97.2991C122.867 97.2991 122.867 97.1056 122.867 96.9895C122.867 96.8734 122.867 96.796 122.867 96.6799C122.867 96.5638 122.867 96.4864 122.867 96.3703C122.867 96.2542 122.867 96.1767 122.867 96.0606L123.1 92.6548C123.1 92.6548 123.1 92.8483 123.1 92.9644C123.1 93.0805 123.1 93.1579 123.1 93.274C123.1 93.3901 123.1 93.4675 123.1 93.5837C123.1 93.6998 123.1 93.7772 123.1 93.8933Z" fill="#141414"/>
</g>
<mask id="mask5_501_4857" style="mask-type:luminance" maskUnits="userSpaceOnUse" x="59" y="92" width="2" height="6">
<path d="M60.1742 97.957C60.0966 96.8346 60.019 95.6735 59.9414 94.5511C59.9414 94.3963 59.9414 94.2415 59.9414 94.0867C59.9414 93.9318 59.9414 93.777 59.9414 93.6222C59.9414 93.4674 59.9414 93.3126 59.9414 93.1578C59.9414 93.003 59.9414 92.8482 59.9414 92.6934L60.1742 96.0992C60.1742 96.0992 60.1742 96.4088 60.1742 96.5637C60.1742 96.7185 60.1742 96.8733 60.1742 97.0281C60.1742 97.1829 60.1742 97.3377 60.1742 97.4925C60.1742 97.6473 60.1742 97.8021 60.1742 97.957Z" fill="white"/>
</mask>
<g mask="url(#mask5_501_4857)">
<path d="M59.8242 92.6934L60.057 96.0992C60.057 96.0992 60.057 96.4088 60.057 96.5637C60.057 96.7185 60.057 96.8733 60.057 97.0281C60.057 97.1829 60.057 97.3377 60.057 97.4925C60.057 97.6473 60.057 97.8021 60.057 97.957L59.8242 94.5511C59.8242 94.5511 59.8242 94.2415 59.8242 94.0867C59.8242 93.9318 59.8242 93.777 59.8242 93.6222C59.8242 93.4674 59.8242 93.3126 59.8242 93.1578C59.8242 93.003 59.8242 92.8482 59.8242 92.6934Z" fill="#141414"/>
</g>
<path d="M115.728 92.6934L115.534 96.0992C115.223 101.634 114.447 107.091 113.245 112.432C112.042 117.773 110.451 123.036 108.395 128.107C106.339 133.177 103.934 138.092 101.102 142.814C98.2695 147.535 95.0494 152.025 91.4414 156.244V153.263C95.0494 149.006 98.3083 144.478 101.179 139.756C104.05 135.034 106.494 130.08 108.512 124.972C110.529 119.863 112.197 114.599 113.4 109.181C114.603 103.762 115.378 98.2666 115.689 92.6934H115.728Z" fill="#6E6E6E"/>
<mask id="mask6_501_4857" style="mask-type:luminance" maskUnits="userSpaceOnUse" x="91" y="92" width="25" height="65">
<path d="M115.728 92.6934L115.534 96.0992C115.223 101.634 114.447 107.091 113.245 112.432C112.042 117.773 110.451 123.036 108.395 128.107C106.339 133.177 103.934 138.092 101.102 142.814C98.2695 147.535 95.0494 152.025 91.4414 156.244V153.263C95.0494 149.006 98.3083 144.478 101.179 139.756C104.05 135.034 106.494 130.08 108.512 124.972C110.529 119.863 112.197 114.599 113.4 109.181C114.603 103.762 115.378 98.2666 115.689 92.6934H115.728Z" fill="white"/>
</mask>
<g mask="url(#mask6_501_4857)">
<path d="M115.726 92.6935L115.532 96.0993C115.494 96.8734 115.416 97.6475 115.377 98.4215C115.338 99.1956 115.261 99.9696 115.144 100.744C115.028 101.518 114.989 102.292 114.873 103.066C114.756 103.84 114.679 104.614 114.562 105.388L114.718 102.021C114.834 101.247 114.95 100.473 115.028 99.6987C115.106 98.9247 115.222 98.1506 115.3 97.3765C115.377 96.6025 115.455 95.8284 115.532 95.0157C115.61 94.2029 115.649 93.4288 115.688 92.6548" fill="#6E6E6E"/>
<path d="M114.756 102.06L114.601 105.427C114.368 106.897 114.135 108.329 113.864 109.761C113.592 111.193 113.282 112.625 112.933 114.057C112.584 115.489 112.234 116.883 111.808 118.315C111.381 119.747 110.993 121.101 110.527 122.495L110.683 119.282C111.148 117.889 111.575 116.496 112.002 115.064C112.428 113.632 112.778 112.238 113.127 110.768C113.476 109.297 113.786 107.904 114.058 106.433C114.329 104.962 114.601 103.53 114.795 102.06" fill="#6E6E6E"/>
<path d="M110.607 119.282L110.452 122.495C109.909 124.082 109.366 125.63 108.745 127.216C108.124 128.803 107.503 130.313 106.805 131.822C106.107 133.332 105.408 134.841 104.671 136.35C103.934 137.86 103.119 139.33 102.305 140.762L102.382 137.666C103.236 136.196 104.012 134.725 104.788 133.215C105.564 131.706 106.262 130.197 106.96 128.648C107.659 127.1 108.279 125.552 108.9 124.004C109.521 122.456 110.064 120.869 110.607 119.244" fill="#6E6E6E"/>
<path d="M102.421 137.667L102.343 140.763C101.567 142.117 100.753 143.472 99.8992 144.788C99.0457 146.104 98.1921 147.42 97.261 148.736C96.3299 150.051 95.4376 151.29 94.4678 152.567C93.4979 153.844 92.4892 155.044 91.4805 156.283V153.302C92.528 152.064 93.5367 150.826 94.5065 149.587C95.4764 148.349 96.4075 147.033 97.3386 145.755C98.2697 144.478 99.1233 143.124 99.9768 141.808C100.83 140.492 101.645 139.099 102.421 137.744" fill="#6E6E6E"/>
</g>
<path d="M115.729 92.6935C115.419 98.2667 114.643 103.763 113.44 109.181C112.238 114.599 110.608 119.863 108.552 124.972C106.496 130.081 104.052 135.034 101.22 139.756C98.3874 144.478 95.1286 149.006 91.4818 153.264C87.8738 149.006 84.6149 144.478 81.7828 139.718C78.9507 134.957 76.4678 130.003 74.4504 124.894C72.433 119.786 70.7648 114.483 69.5621 109.104C68.3595 103.724 67.5835 98.228 67.2344 92.6548H115.69L115.729 92.6935Z" fill="url(#paint5_linear_501_4857)"/>
<path d="M91.4818 153.264V156.244C87.9126 152.025 84.6925 147.497 81.8604 142.814C79.0283 138.131 76.5842 133.177 74.5668 128.107C72.5494 123.037 70.92 117.773 69.7173 112.432C68.5146 107.091 67.7387 101.634 67.4284 96.1383L67.2344 92.7324C67.5835 98.2669 68.3595 103.763 69.5621 109.181C70.7648 114.6 72.3942 119.863 74.4504 124.972C76.5066 130.081 78.9507 135.035 81.7828 139.795C84.6149 144.556 87.8738 149.084 91.4818 153.341V153.264Z" fill="#6E6E6E"/>
<mask id="mask7_501_4857" style="mask-type:luminance" maskUnits="userSpaceOnUse" x="67" y="92" width="25" height="65">
<path d="M91.4818 153.264V156.244C87.9126 152.025 84.6925 147.497 81.8604 142.814C79.0283 138.131 76.5842 133.177 74.5668 128.107C72.5494 123.037 70.92 117.773 69.7173 112.432C68.5146 107.091 67.7387 101.634 67.4284 96.1383L67.2344 92.7324C67.5835 98.2669 68.3595 103.763 69.5621 109.181C70.7648 114.6 72.3942 119.863 74.4504 124.972C76.5066 130.081 78.9507 135.035 81.7828 139.795C84.6149 144.556 87.8738 149.084 91.4818 153.341V153.264Z" fill="white"/>
</mask>
<g mask="url(#mask7_501_4857)">
<path d="M91.4818 153.264V156.244C87.9126 152.025 84.6925 147.497 81.8604 142.814C79.0283 138.131 76.5842 133.177 74.5668 128.107C72.5494 123.037 70.92 117.773 69.7173 112.432C68.5146 107.091 67.7387 101.634 67.4284 96.1383L67.2344 92.7324C67.5835 98.2669 68.3595 103.763 69.5621 109.181C70.7648 114.6 72.3942 119.863 74.4504 124.972C76.5066 130.081 78.9507 135.035 81.7828 139.795C84.6149 144.556 87.8738 149.084 91.4818 153.341" fill="#6E6E6E"/>
</g>
<path d="M59.8244 92.6935C60.1347 98.3441 60.8331 103.956 61.9969 109.413C63.1608 114.87 64.7127 120.25 66.6524 125.475C68.5922 130.7 70.9588 135.77 73.7133 140.646C76.4678 145.523 79.5715 150.206 83.0631 154.657C75.1875 153.651 67.7387 151.29 60.9883 147.806C54.2378 144.323 48.1468 139.679 42.987 134.183C37.8271 128.687 33.5984 122.301 30.5335 115.296C27.4686 108.291 25.6064 100.666 25.1797 92.6548H59.8632L59.8244 92.6935Z" fill="url(#paint6_linear_501_4857)"/>
<path d="M26.227 101.982L25.7227 98.6152C26.7701 105.93 29.0591 112.858 32.3179 119.205C35.5768 125.552 39.8443 131.281 44.8878 136.234C49.9313 141.188 55.7894 145.33 62.1908 148.465C68.5921 151.6 75.6141 153.767 82.9853 154.696L83.0629 157.637C75.7305 156.708 68.786 154.58 62.4235 151.483C56.061 148.387 50.2416 144.246 45.237 139.331C40.2323 134.415 36.0036 128.726 32.7447 122.418C29.4859 116.109 27.2357 109.259 26.1882 101.982H26.227Z" fill="#6E6E6E"/>
<mask id="mask8_501_4857" style="mask-type:luminance" maskUnits="userSpaceOnUse" x="25" y="98" width="59" height="60">
<path d="M26.227 101.982L25.7227 98.6152C26.7701 105.93 29.0591 112.858 32.3179 119.205C35.5768 125.552 39.8443 131.281 44.8878 136.234C49.9313 141.188 55.7894 145.33 62.1908 148.465C68.5921 151.6 75.6141 153.767 82.9853 154.696L83.0629 157.637C75.7305 156.708 68.786 154.58 62.4235 151.483C56.061 148.387 50.2416 144.246 45.237 139.331C40.2323 134.415 36.0036 128.726 32.7447 122.418C29.4859 116.109 27.2357 109.259 26.1882 101.982H26.227Z" fill="white"/>
</mask>
<g mask="url(#mask8_501_4857)">
<path d="M83.0241 154.696L83.1017 157.637C75.7693 156.708 68.8248 154.58 62.4623 151.483C56.0998 148.387 50.2804 144.246 45.2758 139.331C40.2711 134.415 36.0424 128.726 32.7835 122.418C29.5246 116.109 27.2745 109.259 26.227 101.982L25.7227 98.6152C26.7701 105.93 29.0591 112.858 32.3179 119.205C35.5768 125.552 39.8443 131.281 44.8878 136.234C49.9313 141.188 55.7894 145.33 62.1908 148.465C68.5921 151.6 75.6141 153.767 82.9853 154.696" fill="#6E6E6E"/>
</g>
<path d="M157.277 98.5763C157.122 99.6987 156.967 100.821 156.773 101.943C155.725 109.22 153.475 116.109 150.216 122.379C146.958 128.648 142.729 134.377 137.724 139.292C132.719 144.207 126.9 148.348 120.538 151.445C114.175 154.541 107.192 156.708 99.8594 157.637L99.937 154.696C107.308 153.767 114.33 151.638 120.77 148.464C127.21 145.291 133.03 141.15 138.112 136.196C143.194 131.242 147.423 125.475 150.682 119.128C153.941 112.78 156.23 105.852 157.277 98.5376V98.5763Z" fill="#6E6E6E"/>
<mask id="mask9_501_4857" style="mask-type:luminance" maskUnits="userSpaceOnUse" x="99" y="98" width="59" height="60">
<path d="M157.277 98.5763C157.122 99.6987 156.967 100.821 156.773 101.943C155.725 109.22 153.475 116.109 150.216 122.379C146.958 128.648 142.729 134.377 137.724 139.292C132.719 144.207 126.9 148.348 120.538 151.445C114.175 154.541 107.192 156.708 99.8594 157.637L99.937 154.696C107.308 153.767 114.33 151.638 120.77 148.464C127.21 145.291 133.03 141.15 138.112 136.196C143.194 131.242 147.423 125.475 150.682 119.128C153.941 112.78 156.23 105.852 157.277 98.5376V98.5763Z" fill="white"/>
</mask>
<g mask="url(#mask9_501_4857)">
<path d="M157.278 98.5762L156.773 101.943C156.773 101.943 156.773 101.982 156.773 102.021C156.773 102.059 156.773 102.059 156.773 102.098C156.773 102.137 156.773 102.137 156.773 102.176C156.773 102.214 156.773 102.214 156.773 102.253L157.278 98.8858C157.278 98.8858 157.278 98.8471 157.278 98.8084C157.278 98.7697 157.278 98.7697 157.278 98.731C157.278 98.6923 157.278 98.6923 157.278 98.6536C157.278 98.6149 157.278 98.6149 157.278 98.5762Z" fill="#6E6E6E"/>
<path d="M157.241 98.8472L156.736 102.214C156.581 103.143 156.426 104.072 156.271 105.001C156.116 105.93 155.883 106.859 155.689 107.749C155.495 108.639 155.223 109.568 154.99 110.458C154.758 111.348 154.447 112.238 154.176 113.129L154.641 109.839C154.952 108.949 155.223 108.058 155.456 107.168C155.689 106.278 155.96 105.349 156.154 104.459C156.348 103.569 156.581 102.601 156.775 101.672C156.969 100.744 157.124 99.8147 157.241 98.8472Z" fill="#6E6E6E"/>
<path d="M154.601 109.839L154.136 113.128C153.787 114.173 153.438 115.18 153.05 116.186C152.662 117.192 152.235 118.198 151.808 119.166C151.381 120.133 150.916 121.101 150.411 122.069C149.907 123.036 149.403 123.965 148.898 124.894L149.325 121.682C149.868 120.753 150.373 119.785 150.877 118.818C151.381 117.85 151.847 116.882 152.274 115.876C152.7 114.87 153.127 113.902 153.515 112.857C153.903 111.812 154.291 110.806 154.64 109.8" fill="#6E6E6E"/>
<path d="M149.286 121.682L148.859 124.894C146.337 129.306 143.35 133.37 139.936 137.047C136.522 140.723 132.681 144.013 128.491 146.877C124.301 149.741 119.762 152.063 114.99 153.882C110.218 155.702 105.136 156.979 99.8984 157.637L99.976 154.695C105.252 154.037 110.373 152.721 115.184 150.902C119.995 149.083 124.573 146.684 128.801 143.82C133.03 140.956 136.871 137.666 140.324 133.95C143.777 130.235 146.803 126.132 149.324 121.682" fill="#6E6E6E"/>
</g>
<path d="M157.86 92.6934C157.433 100.705 155.532 108.329 152.506 115.335C149.48 122.34 145.212 128.726 140.052 134.222C134.893 139.717 128.802 144.362 122.051 147.845C115.301 151.328 107.852 153.728 99.9375 154.695C103.39 150.283 106.494 145.6 109.21 140.724C111.925 135.847 114.292 130.777 116.232 125.552C118.172 120.327 119.762 114.948 120.926 109.452C122.09 103.956 122.827 98.344 123.176 92.6934H157.86Z" fill="url(#paint7_linear_501_4857)"/>
<path d="M182.42 165.92L181.76 168.784C181.217 171.106 180.286 173.273 179.045 175.247C177.803 177.221 176.213 178.924 174.428 180.395C172.643 181.865 170.587 182.988 168.337 183.8C166.087 184.613 163.72 185.039 161.237 185.039C158.328 185.039 155.534 184.458 153.013 183.375C150.491 182.291 148.202 180.782 146.301 178.846C144.4 176.911 142.848 174.666 141.762 172.151C140.676 169.635 140.094 166.849 140.094 163.946C140.094 163.714 140.094 163.52 140.094 163.288C140.094 163.056 140.094 162.862 140.094 162.63C140.094 162.398 140.094 162.204 140.133 161.972C140.171 161.74 140.171 161.546 140.21 161.314L140.559 158.373C140.559 158.605 140.52 158.798 140.482 159.031C140.443 159.263 140.482 159.456 140.443 159.688C140.404 159.921 140.443 160.114 140.443 160.346C140.443 160.579 140.443 160.772 140.443 161.004C140.443 163.946 141.025 166.732 142.111 169.248C143.197 171.764 144.749 174.086 146.689 175.982C148.629 177.879 150.918 179.466 153.478 180.511C156.039 181.556 158.832 182.175 161.742 182.175C164.264 182.175 166.669 181.749 168.919 180.936C171.169 180.124 173.225 178.963 175.049 177.531C176.872 176.099 178.463 174.318 179.704 172.344C180.946 170.37 181.916 168.203 182.459 165.842L182.42 165.92Z" fill="#6E6E6E"/>
<mask id="mask10_501_4857" style="mask-type:luminance" maskUnits="userSpaceOnUse" x="140" y="158" width="43" height="28">
<path d="M182.42 165.92L181.76 168.784C181.217 171.106 180.286 173.273 179.045 175.247C177.803 177.221 176.213 178.924 174.428 180.395C172.643 181.865 170.587 182.988 168.337 183.8C166.087 184.613 163.72 185.039 161.237 185.039C158.328 185.039 155.534 184.458 153.013 183.375C150.491 182.291 148.202 180.782 146.301 178.846C144.4 176.911 142.848 174.666 141.762 172.151C140.676 169.635 140.094 166.849 140.094 163.946C140.094 163.714 140.094 163.52 140.094 163.288C140.094 163.056 140.094 162.862 140.094 162.63C140.094 162.398 140.094 162.204 140.133 161.972C140.171 161.74 140.171 161.546 140.21 161.314L140.559 158.373C140.559 158.605 140.52 158.798 140.482 159.031C140.443 159.263 140.482 159.456 140.443 159.688C140.404 159.921 140.443 160.114 140.443 160.346C140.443 160.579 140.443 160.772 140.443 161.004C140.443 163.946 141.025 166.732 142.111 169.248C143.197 171.764 144.749 174.086 146.689 175.982C148.629 177.879 150.918 179.466 153.478 180.511C156.039 181.556 158.832 182.175 161.742 182.175C164.264 182.175 166.669 181.749 168.919 180.936C171.169 180.124 173.225 178.963 175.049 177.531C176.872 176.099 178.463 174.318 179.704 172.344C180.946 170.37 181.916 168.203 182.459 165.842L182.42 165.92Z" fill="white"/>
</mask>
<g mask="url(#mask10_501_4857)">
<path d="M182.422 165.92L181.762 168.784C181.762 168.784 181.685 169.094 181.646 169.248C181.607 169.403 181.568 169.558 181.529 169.713C181.491 169.868 181.452 170.023 181.413 170.139C181.374 170.255 181.335 170.448 181.258 170.564L181.917 167.7C181.917 167.7 181.995 167.391 182.073 167.275C182.15 167.159 182.15 166.965 182.189 166.81C182.228 166.655 182.267 166.501 182.305 166.346C182.344 166.191 182.383 166.036 182.422 165.881" fill="#6E6E6E"/>
<path d="M181.918 167.7L181.258 170.564C181.142 170.913 181.025 171.222 180.909 171.532C180.793 171.842 180.637 172.19 180.521 172.499C180.405 172.809 180.249 173.119 180.094 173.428C179.939 173.738 179.784 174.048 179.59 174.319L180.249 171.493C180.405 171.184 180.599 170.874 180.754 170.564C180.909 170.255 181.064 169.945 181.219 169.635C181.374 169.326 181.491 168.978 181.607 168.668C181.724 168.358 181.84 168.01 181.956 167.662" fill="#6E6E6E"/>
<path d="M180.247 171.493L179.588 174.318C178.696 175.905 177.571 177.376 176.29 178.653C175.01 179.93 173.575 181.091 171.984 182.02C170.393 182.949 168.686 183.685 166.902 184.188C165.117 184.691 163.177 184.962 161.237 184.962C158.328 184.962 155.534 184.381 153.013 183.298C150.491 182.214 148.202 180.704 146.301 178.769C144.4 176.834 142.848 174.589 141.762 172.074C140.676 169.558 140.094 166.771 140.094 163.869C140.094 163.636 140.094 163.443 140.094 163.211C140.094 162.978 140.094 162.785 140.094 162.553C140.094 162.321 140.094 162.127 140.133 161.895C140.171 161.663 140.171 161.469 140.21 161.237L140.559 158.295C140.559 158.528 140.52 158.721 140.482 158.953C140.443 159.186 140.482 159.379 140.443 159.611C140.404 159.844 140.443 160.037 140.443 160.269C140.443 160.501 140.443 160.695 140.443 160.927C140.443 163.869 141.025 166.655 142.111 169.171C143.197 171.687 144.749 174.009 146.689 175.905C148.629 177.802 150.918 179.388 153.478 180.433C156.039 181.478 158.832 182.098 161.742 182.098C163.72 182.098 165.621 181.827 167.445 181.324C169.268 180.821 170.975 180.085 172.566 179.118C174.157 178.15 175.592 177.028 176.911 175.712C178.23 174.396 179.316 172.925 180.247 171.338" fill="#6E6E6E"/>
</g>
<path d="M42.3646 158.373L42.7138 161.314C42.7138 161.546 42.7526 161.74 42.7914 161.972C42.8302 162.204 42.7914 162.398 42.8302 162.63C42.869 162.862 42.8302 163.056 42.8302 163.288C42.8302 163.52 42.8302 163.714 42.8302 163.946C42.8302 166.849 42.2482 169.596 41.162 172.151C40.0757 174.705 38.5626 176.95 36.6228 178.846C34.683 180.743 32.4329 182.291 29.9112 183.375C27.3894 184.458 24.5961 185.039 21.6864 185.039C19.2035 185.039 16.7982 184.613 14.5868 183.8C12.3754 182.988 10.3193 181.865 8.49585 180.395C6.67245 178.924 5.12061 177.221 3.87915 175.247C2.63768 173.273 1.70658 171.106 1.16344 168.784L0.503906 165.92C1.04705 168.242 1.97815 170.448 3.25841 172.422C4.53867 174.396 6.09051 176.137 7.91391 177.608C9.73732 179.079 11.7935 180.24 14.0437 181.014C16.2938 181.788 18.6992 182.252 21.2209 182.252C24.1694 182.252 26.9627 181.672 29.4844 180.588C32.0061 179.504 34.3339 177.956 36.2349 176.06C38.1359 174.163 39.7265 171.841 40.8128 169.325C41.8991 166.81 42.481 163.984 42.481 161.082C42.481 160.85 42.481 160.617 42.481 160.424C42.481 160.23 42.481 159.998 42.481 159.766C42.481 159.534 42.481 159.34 42.4422 159.108C42.4034 158.876 42.4034 158.682 42.3646 158.45V158.373Z" fill="#6E6E6E"/>
<mask id="mask11_501_4857" style="mask-type:luminance" maskUnits="userSpaceOnUse" x="0" y="158" width="43" height="28">
<path d="M42.3646 158.373L42.7138 161.314C42.7138 161.546 42.7526 161.74 42.7914 161.972C42.8302 162.204 42.7914 162.398 42.8302 162.63C42.869 162.862 42.8302 163.056 42.8302 163.288C42.8302 163.52 42.8302 163.714 42.8302 163.946C42.8302 166.849 42.2482 169.596 41.162 172.151C40.0757 174.705 38.5626 176.95 36.6228 178.846C34.683 180.743 32.4329 182.291 29.9112 183.375C27.3894 184.458 24.5961 185.039 21.6864 185.039C19.2035 185.039 16.7982 184.613 14.5868 183.8C12.3754 182.988 10.3193 181.865 8.49585 180.395C6.67245 178.924 5.12061 177.221 3.87915 175.247C2.63768 173.273 1.70658 171.106 1.16344 168.784L0.503906 165.92C1.04705 168.242 1.97815 170.448 3.25841 172.422C4.53867 174.396 6.09051 176.137 7.91391 177.608C9.73732 179.079 11.7935 180.24 14.0437 181.014C16.2938 181.788 18.6992 182.252 21.2209 182.252C24.1694 182.252 26.9627 181.672 29.4844 180.588C32.0061 179.504 34.3339 177.956 36.2349 176.06C38.1359 174.163 39.7265 171.841 40.8128 169.325C41.8991 166.81 42.481 163.984 42.481 161.082C42.481 160.85 42.481 160.617 42.481 160.424C42.481 160.23 42.481 159.998 42.481 159.766C42.481 159.534 42.481 159.34 42.4422 159.108C42.4034 158.876 42.4034 158.682 42.3646 158.45V158.373Z" fill="white"/>
</mask>
<g mask="url(#mask11_501_4857)">
<path d="M42.3672 158.373L42.7164 161.314C42.7164 161.314 42.7551 161.662 42.7939 161.817C42.8327 161.972 42.7939 162.165 42.8327 162.359C42.8715 162.552 42.8327 162.707 42.8327 162.901C42.8327 163.094 42.8327 163.249 42.8327 163.443L42.4836 160.54C42.4836 160.54 42.4836 160.192 42.4836 159.998C42.4836 159.805 42.4836 159.65 42.4836 159.456C42.4836 159.263 42.4836 159.108 42.4448 158.914C42.406 158.721 42.4448 158.566 42.3672 158.373Z" fill="#6E6E6E"/>
<path d="M42.5218 160.501L42.871 163.404C42.871 163.404 42.871 163.482 42.871 163.52C42.871 163.559 42.871 163.598 42.871 163.636C42.871 163.675 42.871 163.714 42.871 163.753C42.871 163.791 42.871 163.83 42.871 163.869C42.871 164.14 42.871 164.41 42.871 164.681C42.871 164.952 42.871 165.223 42.8322 165.455C42.7934 165.688 42.7934 165.959 42.7546 166.229C42.7158 166.5 42.677 166.733 42.6382 167.004L42.2891 164.101C42.2891 163.83 42.3667 163.598 42.4055 163.327C42.4442 163.056 42.4442 162.824 42.483 162.553C42.5218 162.282 42.483 162.011 42.5218 161.779C42.5606 161.546 42.5218 161.237 42.5218 160.966C42.5218 160.927 42.5218 160.888 42.5218 160.85C42.5218 160.811 42.5218 160.772 42.5218 160.734C42.5218 160.695 42.5218 160.656 42.5218 160.618C42.5218 160.579 42.5218 160.54 42.5218 160.501Z" fill="#6E6E6E"/>
<path d="M42.3259 164.178L42.6751 167.081C42.6363 167.391 42.5975 167.661 42.5199 167.971C42.4423 168.281 42.4035 168.552 42.3259 168.861C42.2483 169.171 42.1707 169.442 42.0931 169.713C42.0155 169.984 41.9379 170.293 41.8216 170.564L41.4336 167.7C41.5112 167.429 41.6276 167.12 41.7052 166.849C41.7828 166.578 41.8603 166.268 41.9379 165.959C42.0155 165.649 42.0543 165.378 42.1319 165.068C42.2095 164.759 42.2483 164.488 42.2871 164.178" fill="#6E6E6E"/>
<path d="M41.4729 167.7L41.8609 170.564C41.7445 170.912 41.6281 171.222 41.5117 171.531C41.3953 171.841 41.2401 172.189 41.1237 172.499C41.0074 172.809 40.8522 173.118 40.697 173.428C40.5418 173.737 40.3866 174.047 40.1926 174.318L39.8047 171.493C39.9599 171.183 40.1539 170.873 40.309 170.564C40.4642 170.254 40.6194 169.945 40.7746 169.635C40.9298 169.325 41.0462 168.977 41.1625 168.667C41.2789 168.358 41.3953 168.009 41.5117 167.661" fill="#6E6E6E"/>
<path d="M39.7661 171.493L40.1541 174.318C39.2618 175.905 38.1367 177.376 36.8564 178.653C35.5762 179.93 34.1407 181.091 32.5501 182.02C30.9594 182.949 29.2524 183.684 27.4678 184.187C25.6832 184.691 23.7434 184.962 21.8036 184.962C19.3207 184.962 16.9153 184.536 14.704 183.723C12.4926 182.91 10.4364 181.788 8.61304 180.317C6.78963 178.846 5.2378 177.144 3.99633 175.17C2.75487 173.196 1.82377 171.028 1.28062 168.706L0.621094 165.842C1.16424 168.164 2.09534 170.371 3.3756 172.344C4.65586 174.318 6.2077 176.06 8.0311 177.531C9.85451 179.001 11.9107 180.162 14.1608 180.936C16.411 181.71 18.8163 182.175 21.3381 182.175C23.3167 182.175 25.2177 181.904 27.0411 181.401C28.8645 180.898 30.5715 180.162 32.1621 179.195C33.7527 178.227 35.1882 177.105 36.5073 175.789C37.8263 174.473 38.9126 173.002 39.8437 171.416" fill="#6E6E6E"/>
</g>
<path d="M161.701 139.795C164.65 139.795 167.443 140.375 169.965 141.459C172.487 142.543 174.814 144.091 176.715 146.026C178.616 147.961 180.207 150.245 181.293 152.76C182.379 155.276 182.961 158.101 182.961 161.004C182.961 163.907 182.379 166.732 181.293 169.248C180.207 171.764 178.655 174.086 176.715 175.982C174.775 177.879 172.487 179.465 169.965 180.51C167.443 181.555 164.611 182.175 161.701 182.175C158.792 182.175 155.959 181.594 153.438 180.51C150.916 179.427 148.588 177.879 146.648 175.982C144.709 174.086 143.157 171.764 142.071 169.248C140.984 166.732 140.402 163.907 140.402 161.004C140.402 158.101 140.984 155.276 142.071 152.76C143.157 150.245 144.709 147.923 146.648 146.026C148.588 144.13 150.877 142.543 153.438 141.459C155.998 140.375 158.792 139.795 161.701 139.795Z" fill="url(#paint8_linear_501_4857)"/>
<path d="M19.1654 139.911C22.075 139.602 24.9071 139.911 27.5841 140.763C30.261 141.614 32.6663 142.891 34.7613 144.633C36.8563 146.375 38.6409 148.465 39.9599 150.903C41.279 153.341 42.1713 156.05 42.4429 158.953C42.7144 161.856 42.4429 164.681 41.5894 167.313C40.7359 169.945 39.4556 172.383 37.7098 174.473C35.964 176.563 33.869 178.343 31.4248 179.659C28.9807 180.975 26.265 181.865 23.3553 182.136C20.4456 182.407 17.5747 182.136 14.9366 181.285C12.2985 180.433 9.85436 179.156 7.75938 177.453C5.66441 175.75 3.8798 173.622 2.56074 171.183C1.24168 168.745 0.349374 166.036 0.0778034 163.133C-0.193768 160.23 0.0778034 157.405 0.931312 154.773C1.78482 152.141 3.06508 149.703 4.8109 147.613C6.55671 145.523 8.65169 143.743 11.0958 142.388C13.54 141.034 16.2557 140.182 19.1654 139.911Z" fill="url(#paint9_linear_501_4857)"/>
</g>
<defs>
<linearGradient id="paint0_linear_501_4857" x1="0.078125" y1="21.1705" x2="42.5984" y2="21.1705" gradientUnits="userSpaceOnUse">
<stop stop-color="#F0F2F2"/>
<stop offset="0.18" stop-color="#E7EAEA"/>
<stop offset="0.47" stop-color="#CFD4D6"/>
<stop offset="0.83" stop-color="#A9B2B5"/>
<stop offset="1" stop-color="#95A0A4"/>
</linearGradient>
<linearGradient id="paint1_linear_501_4857" x1="140.364" y1="0" x2="182.923" y2="0" gradientUnits="userSpaceOnUse">
<stop stop-color="#F0F2F2"/>
<stop offset="0.18" stop-color="#E7EAEA"/>
<stop offset="0.47" stop-color="#CFD4D6"/>
<stop offset="0.83" stop-color="#A9B2B5"/>
<stop offset="1" stop-color="#95A0A4"/>
</linearGradient>
<linearGradient id="paint2_linear_501_4857" x1="80.6577" y1="93.0031" x2="112.897" y2="37.0104" gradientUnits="userSpaceOnUse">
<stop stop-color="#F0F2F2"/>
<stop offset="0.18" stop-color="#E7EAEA"/>
<stop offset="0.47" stop-color="#CFD4D6"/>
<stop offset="0.83" stop-color="#A9B2B5"/>
<stop offset="1" stop-color="#95A0A4"/>
</linearGradient>
<linearGradient id="paint3_linear_501_4857" x1="35.0724" y1="90.9906" x2="76.2802" y2="19.4594" gradientUnits="userSpaceOnUse">
<stop stop-color="#F0F2F2"/>
<stop offset="0.18" stop-color="#E7EAEA"/>
<stop offset="0.47" stop-color="#CFD4D6"/>
<stop offset="0.83" stop-color="#A9B2B5"/>
<stop offset="1" stop-color="#95A0A4"/>
</linearGradient>
<linearGradient id="paint4_linear_501_4857" x1="114.02" y1="79.9991" x2="137.601" y2="39.0798" gradientUnits="userSpaceOnUse">
<stop stop-color="#F0F2F2"/>
<stop offset="0.18" stop-color="#E7EAEA"/>
<stop offset="0.47" stop-color="#CFD4D6"/>
<stop offset="0.83" stop-color="#A9B2B5"/>
<stop offset="1" stop-color="#95A0A4"/>
</linearGradient>
<linearGradient id="paint5_linear_501_4857" x1="80.6577" y1="84.9529" x2="112.897" y2="140.946" gradientUnits="userSpaceOnUse">
<stop stop-color="#F0F2F2"/>
<stop offset="0.18" stop-color="#E7EAEA"/>
<stop offset="0.47" stop-color="#CFD4D6"/>
<stop offset="0.83" stop-color="#A9B2B5"/>
<stop offset="1" stop-color="#95A0A4"/>
</linearGradient>
<linearGradient id="paint6_linear_501_4857" x1="35.0338" y1="86.9655" x2="76.2803" y2="158.574" gradientUnits="userSpaceOnUse">
<stop stop-color="#F0F2F2"/>
<stop offset="0.18" stop-color="#E7EAEA"/>
<stop offset="0.47" stop-color="#CFD4D6"/>
<stop offset="0.83" stop-color="#A9B2B5"/>
<stop offset="1" stop-color="#95A0A4"/>
</linearGradient>
<linearGradient id="paint7_linear_501_4857" x1="114.02" y1="97.957" x2="137.601" y2="138.954" gradientUnits="userSpaceOnUse">
<stop stop-color="#F0F2F2"/>
<stop offset="0.18" stop-color="#E7EAEA"/>
<stop offset="0.47" stop-color="#CFD4D6"/>
<stop offset="0.83" stop-color="#A9B2B5"/>
<stop offset="1" stop-color="#95A0A4"/>
</linearGradient>
<linearGradient id="paint8_linear_501_4857" x1="140.402" y1="161.004" x2="183" y2="161.004" gradientUnits="userSpaceOnUse">
<stop stop-color="#F0F2F2"/>
<stop offset="0.18" stop-color="#E7EAEA"/>
<stop offset="0.47" stop-color="#CFD4D6"/>
<stop offset="0.83" stop-color="#A9B2B5"/>
<stop offset="1" stop-color="#95A0A4"/>
</linearGradient>
<linearGradient id="paint9_linear_501_4857" x1="0.107487" y1="163.123" x2="42.4503" y2="158.849" gradientUnits="userSpaceOnUse">
<stop stop-color="#F0F2F2"/>
<stop offset="0.18" stop-color="#E7EAEA"/>
<stop offset="0.47" stop-color="#CFD4D6"/>
<stop offset="0.83" stop-color="#A9B2B5"/>
<stop offset="1" stop-color="#95A0A4"/>
</linearGradient>
<clipPath id="clip0_501_4857">
<rect width="183" height="185" fill="white"/>
</clipPath>
</defs>
</svg>
