<svg width="187" height="185" viewBox="0 0 187 185" fill="none" xmlns="http://www.w3.org/2000/svg">
<g clip-path="url(#clip0_501_4995)">
<path d="M120.778 -0.000204969C120.778 -0.000204969 122.815 0.0931351 125.779 1.30656C128.743 2.51998 132.679 4.80681 136.616 9.19379C140.552 13.5808 144.535 20.0679 147.545 29.6353C150.555 39.2026 152.639 51.8969 152.824 68.6514C151.435 69.3515 149.258 70.3315 146.202 71.4049C143.146 72.4784 139.256 73.6451 134.393 74.7652C129.53 75.8853 123.742 76.8653 116.934 77.6121C110.126 78.3588 102.346 78.8255 93.4549 78.8255C84.5633 78.8255 76.7369 78.3588 69.9294 77.6121C63.1218 76.8653 57.333 75.8853 52.4705 74.7652C47.6079 73.6451 43.6716 72.4784 40.6614 71.4049C37.6512 70.3315 35.4284 69.3515 34.0391 68.6514C34.2243 51.8969 36.2156 39.2026 39.1332 29.6353C42.0507 20.0679 45.8944 13.5808 49.7845 9.19379C53.6745 4.80681 57.5646 2.51998 60.5747 1.30656C63.5849 0.0931351 65.7614 -0.000204969 66.1319 -0.046875C66.2245 -0.046875 66.6413 -0.046875 67.3823 -0.000204969C68.1233 0.0464651 69.0958 0.186475 70.2998 0.419825C71.5039 0.653175 72.8932 1.02654 74.4214 1.58658C75.9497 2.14662 77.5705 2.84667 79.2377 3.82674C80.3491 4.48012 81.4606 5.08683 82.6183 5.55353C83.7761 6.02023 84.9338 6.48693 86.1379 6.81362C87.3419 7.14031 88.546 7.37366 89.7501 7.56034C90.9541 7.74702 92.2045 7.79369 93.4549 7.79369C94.7052 7.79369 95.9093 7.70035 97.1597 7.56034C98.41 7.42033 99.6141 7.14031 100.772 6.81362C101.93 6.48693 103.134 6.0669 104.291 5.55353C105.449 5.04016 106.561 4.48012 107.672 3.82674C109.339 2.84667 110.96 2.09995 112.442 1.58658C113.924 1.07321 115.36 0.653175 116.517 0.419825C117.675 0.186475 118.694 0.0464651 119.435 -0.000204969C120.176 -0.046875 120.593 -0.046875 120.685 -0.046875L120.778 -0.000204969Z" fill="url(#paint0_linear_501_4995)"/>
<path d="M152.868 68.6514L152.405 72.945C151.062 73.6451 148.886 74.6251 145.876 75.6985C142.865 76.772 138.975 77.9387 134.159 79.0121C129.343 80.0855 123.6 81.1123 116.839 81.8123C110.078 82.5124 102.344 82.9791 93.5453 82.9791C84.7464 82.9791 76.9663 82.5124 70.205 81.8123C63.4437 81.1123 57.7013 80.0855 52.885 79.0121C48.0688 77.9387 44.1788 76.772 41.1686 75.6985C38.1584 74.6251 35.9819 73.6451 34.6389 72.945L34.1758 68.6514C35.5651 69.3514 37.7417 70.3315 40.7981 71.4049C43.8546 72.4783 47.7446 73.6451 52.6072 74.7651C57.4697 75.8852 63.2585 76.8653 70.0661 77.612C76.8737 78.3587 84.7 78.8254 93.5916 78.8254C102.483 78.8254 110.263 78.3587 117.071 77.612C123.878 76.8653 129.667 75.8852 134.53 74.7651C139.392 73.6451 143.282 72.4783 146.339 71.4049C149.395 70.3315 151.572 69.3514 152.961 68.6514H152.868Z" fill="#666666"/>
<mask id="mask0_501_4995" style="mask-type:luminance" maskUnits="userSpaceOnUse" x="34" y="68" width="119" height="15">
<path d="M152.868 68.6514L152.405 72.945C151.062 73.6451 148.886 74.6251 145.876 75.6985C142.865 76.772 138.975 77.9387 134.159 79.0121C129.343 80.0855 123.6 81.1123 116.839 81.8123C110.078 82.5124 102.344 82.9791 93.5453 82.9791C84.7464 82.9791 76.9663 82.5124 70.205 81.8123C63.4437 81.1123 57.7013 80.0855 52.885 79.0121C48.0688 77.9387 44.1788 76.772 41.1686 75.6985C38.1584 74.6251 35.9819 73.6451 34.6389 72.945L34.1758 68.6514C35.5651 69.3514 37.7417 70.3315 40.7981 71.4049C43.8546 72.4783 47.7446 73.6451 52.6072 74.7651C57.4697 75.8852 63.2585 76.8653 70.0661 77.612C76.8737 78.3587 84.7 78.8254 93.5916 78.8254C102.483 78.8254 110.263 78.3587 117.071 77.612C123.878 76.8653 129.667 75.8852 134.53 74.7651C139.392 73.6451 143.282 72.4783 146.339 71.4049C149.395 70.3315 151.572 69.3514 152.961 68.6514H152.868Z" fill="white"/>
</mask>
<g mask="url(#mask0_501_4995)">
<path d="M152.868 68.6514L152.405 72.945C151.062 73.6451 148.886 74.6251 145.876 75.6985C142.865 76.772 138.975 77.9387 134.159 79.0121C129.343 80.0855 123.6 81.1123 116.839 81.8123C110.078 82.5124 102.344 82.9791 93.5453 82.9791C84.7464 82.9791 76.9663 82.5124 70.205 81.8123C63.4437 81.1123 57.7013 80.0855 52.885 79.0121C48.0688 77.9387 44.1788 76.772 41.1686 75.6985C38.1584 74.6251 35.9819 73.6451 34.6389 72.945L34.1758 68.6514C35.5651 69.3514 37.7417 70.3315 40.7981 71.4049C43.8546 72.4783 47.7446 73.6451 52.6072 74.7651C57.4697 75.8852 63.2585 76.8653 70.0661 77.612C76.8737 78.3587 84.7 78.8254 93.5916 78.8254C102.483 78.8254 110.263 78.3587 117.071 77.612C123.878 76.8653 129.667 75.8852 134.53 74.7651C139.392 73.6451 143.282 72.4783 146.339 71.4049C149.395 70.3315 151.572 69.3514 152.961 68.6514" fill="#666666"/>
</g>
<path d="M157.917 75.1385C163.243 76.3519 167.735 77.612 171.44 78.9187C175.145 80.2255 178.155 81.4856 180.424 82.7923C182.693 84.0991 184.36 85.3125 185.425 86.4793C186.491 87.646 187 88.7661 187 89.7462C187 91.893 184.731 94.2265 180.424 96.56C176.117 98.8935 169.773 101.227 161.668 103.28C153.564 105.334 143.654 107.154 132.215 108.414C120.777 109.674 107.81 110.468 93.5463 110.468C79.2828 110.468 66.2697 109.721 54.8311 108.414C43.3925 107.107 33.4822 105.334 25.3779 103.28C17.2736 101.227 10.9292 98.8935 6.62234 96.56C2.3155 94.2265 0 91.7997 0 89.6995C0 88.7194 0.509411 87.5994 1.57454 86.4326C2.63967 85.2659 4.26052 84.0058 6.57603 82.7457C8.89153 81.4856 11.8554 80.1788 15.5602 78.8721C19.265 77.5653 23.7571 76.3052 29.0827 75.0918C30.472 75.8385 32.7412 76.9586 35.9366 78.172C39.132 79.3854 43.3925 80.7389 48.6256 81.999C53.8586 83.259 60.2031 84.4258 67.659 85.2659C75.1149 86.1059 83.6823 86.666 93.5 86.666C103.318 86.666 111.885 86.1526 119.295 85.2659C126.704 84.3791 133.049 83.259 138.282 81.999C143.515 80.7389 147.729 79.3854 150.971 78.172C154.212 76.9586 156.482 75.8385 157.825 75.0918L157.917 75.1385Z" fill="url(#paint1_linear_501_4995)"/>
<path d="M186.955 90.2129L186.26 94.3665C185.89 96.4667 183.389 98.8002 178.989 101.04C174.59 103.28 168.199 105.567 160.188 107.574C152.176 109.581 142.405 111.261 131.244 112.521C120.083 113.781 107.394 114.481 93.5474 114.481C79.7007 114.481 67.0118 113.735 55.8047 112.521C44.5977 111.308 34.8726 109.581 26.861 107.574C18.8493 105.567 12.4585 103.327 8.05908 101.04C3.65962 98.7535 1.11257 96.4667 0.788401 94.3665L0.09375 90.2129C0.46423 92.313 2.96497 94.6465 7.41074 96.9334C11.8565 99.2202 18.2473 101.507 26.3516 103.514C34.4558 105.521 44.2735 107.247 55.5269 108.508C66.7802 109.768 79.5618 110.468 93.5474 110.468C107.533 110.468 120.268 109.721 131.522 108.508C142.775 107.294 152.593 105.521 160.697 103.514C168.801 101.507 175.192 99.2669 179.638 96.9334C184.084 94.5999 186.631 92.313 186.955 90.2129Z" fill="#666666"/>
<mask id="mask1_501_4995" style="mask-type:luminance" maskUnits="userSpaceOnUse" x="0" y="90" width="187" height="25">
<path d="M186.955 90.2129L186.26 94.3665C185.89 96.4667 183.389 98.8002 178.989 101.04C174.59 103.28 168.199 105.567 160.188 107.574C152.176 109.581 142.405 111.261 131.244 112.521C120.083 113.781 107.394 114.481 93.5474 114.481C79.7007 114.481 67.0118 113.735 55.8047 112.521C44.5977 111.308 34.8726 109.581 26.861 107.574C18.8493 105.567 12.4585 103.327 8.05908 101.04C3.65962 98.7535 1.11257 96.4667 0.788401 94.3665L0.09375 90.2129C0.46423 92.313 2.96497 94.6465 7.41074 96.9334C11.8565 99.2202 18.2473 101.507 26.3516 103.514C34.4558 105.521 44.2735 107.247 55.5269 108.508C66.7802 109.768 79.5618 110.468 93.5474 110.468C107.533 110.468 120.268 109.721 131.522 108.508C142.775 107.294 152.593 105.521 160.697 103.514C168.801 101.507 175.192 99.2669 179.638 96.9334C184.084 94.5999 186.631 92.313 186.955 90.2129Z" fill="white"/>
</mask>
<g mask="url(#mask1_501_4995)">
<path d="M186.952 90.2129L186.258 94.3198V94.3665V94.4132L186.952 90.2596V90.2129Z" fill="#666666"/>
<path d="M186.952 90.2598L186.258 94.4134V94.4601V94.5067L186.952 90.3531V90.3064V90.2598Z" fill="#666666"/>
<path d="M186.956 90.353L186.261 94.5067L186.215 94.5533V94.6L186.91 90.4464V90.3997L186.956 90.353Z" fill="#666666"/>
<path d="M186.91 90.4463L186.215 94.5999V94.6466L186.91 90.5396V90.493V90.4463Z" fill="#666666"/>
<path d="M186.909 90.5396L186.214 94.6465V94.6932H186.168V94.7399L186.863 90.6329V90.5862L186.909 90.5396Z" fill="#666666"/>
<path d="M186.863 90.6328L186.168 94.7398V94.7864V94.8331L186.863 90.6795V90.6328Z" fill="#666666"/>
<path d="M186.862 90.6797L186.167 94.8333L186.121 94.88V94.9267L186.816 90.773V90.7264L186.862 90.6797Z" fill="#666666"/>
<path d="M186.815 90.7729L186.121 94.9266V94.9733H186.074V95.0199L186.769 90.8663L186.815 90.8196V90.7729Z" fill="#666666"/>
<path d="M186.769 90.8662L186.074 95.0198V95.0665V95.1132L186.769 90.9596V90.9129V90.8662Z" fill="#666666"/>
<path d="M186.768 90.9595L186.073 95.1131L186.027 95.1598V95.2064L185.98 95.2531L186.675 91.0995H186.721V91.0528V91.0061L186.768 90.9595Z" fill="#666666"/>
<path d="M186.678 91.0996L185.983 95.2532V95.2999L185.937 95.3466V95.3933L185.891 95.4399L186.585 91.2863L186.632 91.2396V91.193L186.678 91.1463V91.0996Z" fill="#666666"/>
<path d="M186.585 91.2866L185.89 95.4403V95.4869L185.844 95.5336V95.5803L186.538 91.4733V91.4266L186.585 91.38V91.3333V91.2866Z" fill="#666666"/>
<path d="M186.537 91.4731L185.843 95.5801L185.796 95.6268V95.6734L185.75 95.7201V95.7668L186.398 91.6131L186.445 91.5665L186.491 91.5198L186.537 91.4731Z" fill="#666666"/>
<path d="M186.397 91.6133L185.748 95.7669L185.702 95.8136L185.656 95.8603L185.609 95.9069L186.304 91.8L186.35 91.7533V91.7066L186.397 91.66V91.6133Z" fill="#666666"/>
<path d="M186.307 91.7998L185.612 95.9068V95.9534L185.566 96.0001V96.0468L185.52 96.0934L186.214 91.9865V91.9398L186.26 91.8931L186.307 91.8465V91.7998Z" fill="#666666"/>
<path d="M186.212 91.9863L185.518 96.0933L185.472 96.14V96.1866L185.425 96.2333L185.379 96.28L186.074 92.1263L186.12 92.0797L186.166 92.033V91.9863H186.212Z" fill="#666666"/>
<path d="M186.072 92.1265L185.378 96.2801L185.331 96.3268L185.285 96.3734V96.4201L185.934 92.3131L185.98 92.2665L186.026 92.2198L186.072 92.1731V92.1265Z" fill="#666666"/>
<path d="M185.936 92.313L185.242 96.4199C185.242 96.4199 185.195 96.5133 185.149 96.56C185.103 96.6066 185.103 96.6533 185.056 96.7C185.01 96.7466 185.01 96.7933 184.964 96.84C184.917 96.8866 184.871 96.9333 184.871 96.98L185.566 92.873C185.566 92.873 185.658 92.7797 185.658 92.733C185.658 92.6863 185.751 92.6397 185.751 92.593C185.751 92.5463 185.797 92.4997 185.844 92.453C185.89 92.4063 185.89 92.3597 185.936 92.313Z" fill="#666666"/>
<path d="M185.567 92.7798L184.872 96.8868C184.872 96.8868 184.78 96.9801 184.733 97.0268C184.687 97.0734 184.641 97.1201 184.594 97.1668C184.548 97.2134 184.502 97.2601 184.455 97.3068C184.409 97.3535 184.363 97.4001 184.316 97.4468L185.011 93.3398C185.011 93.3398 185.104 93.2465 185.15 93.1998C185.196 93.1531 185.243 93.1065 185.289 93.0598C185.335 93.0131 185.382 92.9665 185.428 92.9198C185.474 92.8731 185.52 92.8265 185.567 92.7798Z" fill="#666666"/>
<path d="M185.009 93.3399L184.315 97.4468C182.231 99.407 178.618 101.46 173.524 103.421C168.43 105.381 161.947 107.248 154.167 108.881C146.387 110.514 137.356 111.915 127.168 112.848C116.98 113.781 105.726 114.388 93.5006 114.388C79.6076 114.388 66.9649 113.641 55.7579 112.428C44.5508 111.214 34.8257 109.488 26.8141 107.481C18.8024 105.474 12.4117 103.234 8.01221 100.947C3.61275 98.6602 1.0657 96.3734 0.741526 94.2733L0.046875 90.1196C0.417355 92.2198 2.9181 94.5533 7.36386 96.8401C11.8096 99.1269 18.2004 101.414 26.3047 103.421C34.4089 105.427 44.2267 107.154 55.48 108.414C66.7334 109.674 79.5149 110.374 93.5006 110.374C105.819 110.374 117.165 109.814 127.446 108.834C137.727 107.854 146.803 106.454 154.63 104.821C162.456 103.187 169.032 101.274 174.126 99.3136C179.22 97.3535 182.925 95.2533 185.009 93.2932" fill="#666666"/>
</g>
<path d="M131.798 126.149C135.874 126.149 139.764 126.942 143.329 128.342C146.895 129.743 150.091 131.796 152.823 134.27C155.555 136.743 157.732 139.777 159.26 143.09C160.788 146.404 161.622 150.044 161.622 153.824C161.622 157.605 160.742 161.291 159.214 164.558C157.686 167.825 155.463 170.859 152.73 173.379C149.998 175.899 146.803 177.906 143.237 179.353C139.671 180.8 135.827 181.546 131.798 181.546C127.769 181.546 123.972 180.8 120.499 179.493C117.025 178.186 113.876 176.226 111.237 173.846C108.597 171.466 106.42 168.619 104.846 165.492C103.271 162.365 102.391 158.865 102.206 155.271C101.558 155.084 100.909 154.898 100.169 154.758C99.4275 154.618 98.7329 154.431 97.9919 154.338C97.251 154.244 96.51 154.104 95.7227 154.011C94.9355 153.918 94.1945 153.918 93.4536 153.918C92.7126 153.918 91.9253 153.918 91.1844 154.011C90.4434 154.104 89.6561 154.198 88.9152 154.338C88.1742 154.478 87.4332 154.618 86.7386 154.758C86.0439 154.898 85.3493 155.084 84.7473 155.271C84.562 158.911 83.6358 162.365 82.1076 165.492C80.5794 168.619 78.4028 171.466 75.7631 173.846C73.1234 176.226 70.0207 178.139 66.5011 179.493C62.9815 180.846 59.1841 181.546 55.1088 181.546C51.0335 181.546 47.1435 180.753 43.5776 179.353C40.0118 177.953 36.8164 175.899 34.0841 173.379C31.3518 170.859 29.1752 167.872 27.647 164.558C26.1187 161.245 25.2852 157.605 25.2852 153.824C25.2852 150.044 26.1187 146.357 27.647 143.09C29.1752 139.823 31.3518 136.79 34.0841 134.27C36.8164 131.749 40.0118 129.743 43.5776 128.342C47.1435 126.942 51.0335 126.149 55.1088 126.149C58.6284 126.149 61.9627 126.709 65.0655 127.736C68.1683 128.762 71.0395 130.256 73.5865 132.123C76.1336 133.989 78.3102 136.23 80.07 138.75C81.8297 141.27 83.1727 144.07 83.96 147.104C84.6546 146.917 85.3493 146.777 86.0903 146.637C86.8312 146.497 87.6185 146.357 88.4058 146.264C89.193 146.17 90.0266 146.077 90.8602 146.03C91.6938 145.984 92.5274 145.937 93.4072 145.937C94.2871 145.937 95.1207 145.937 95.908 146.03C96.6953 146.124 97.5288 146.17 98.3161 146.264C99.1034 146.357 99.8907 146.497 100.632 146.637C101.373 146.777 102.067 146.917 102.762 147.104C103.549 144.117 104.892 141.27 106.652 138.75C108.412 136.23 110.635 133.989 113.182 132.123C115.729 130.256 118.6 128.762 121.703 127.736C124.805 126.709 128.186 126.149 131.659 126.149H131.798Z" fill="url(#paint2_linear_501_4995)"/>
<path d="M161.389 157.324C161.157 159.005 160.74 160.685 160.185 162.272C159.629 163.858 158.888 165.398 158.054 166.845C157.221 168.292 156.202 169.692 155.091 170.952C154.35 171.792 153.516 172.539 152.682 173.286C151.849 174.032 150.969 174.779 150.089 175.432C149.487 175.852 148.885 176.319 148.237 176.693C147.264 177.299 146.245 177.859 145.18 178.373C144.393 178.746 143.652 179.166 142.818 179.446C142.541 179.539 142.263 179.633 141.985 179.726C140.549 180.239 139.021 180.659 137.493 180.94C137.261 180.94 137.03 181.033 136.752 181.033C135.131 181.313 133.464 181.453 131.75 181.453C127.721 181.453 123.924 180.706 120.451 179.399C116.977 178.046 113.828 176.132 111.189 173.752C108.549 171.372 106.372 168.525 104.798 165.398C103.27 162.271 102.343 158.771 102.158 155.178C101.51 154.991 100.862 154.804 100.121 154.664C99.4259 154.524 98.6849 154.338 97.944 154.244C97.203 154.104 96.4621 154.011 95.6748 153.918C94.9338 153.824 94.1466 153.824 93.4056 153.824C92.6646 153.824 91.8774 153.824 91.1364 153.918C90.3954 154.011 89.6082 154.104 88.8672 154.244C88.1263 154.384 87.3853 154.524 86.6906 154.664C85.996 154.804 85.3013 154.991 84.6993 155.178C84.6993 156.064 84.5604 156.998 84.4214 157.885C84.2825 158.771 84.0973 159.658 83.8657 160.498C83.4026 162.225 82.8006 163.858 82.0596 165.445C81.2724 167.032 80.3925 168.525 79.3273 169.925C78.4474 171.092 77.3823 172.166 76.3172 173.192C74.2795 175.106 72.0104 176.646 69.5559 177.953C67.0089 179.306 64.3229 180.286 61.498 180.846C60.757 180.986 59.9697 181.126 59.2288 181.22C58.9046 181.22 58.5804 181.313 58.21 181.36C57.1911 181.453 56.126 181.5 55.0609 181.5C51.3098 181.5 47.6976 180.846 44.3633 179.633C41.0289 178.419 37.9725 176.693 35.3328 174.499C32.6931 172.306 30.4702 169.739 28.7568 166.845C27.0896 163.952 25.9319 160.731 25.4688 157.324C25.654 158.538 25.7929 159.751 25.9782 160.965C26.4413 164.325 27.599 167.545 29.2662 170.392C30.9333 173.286 33.1562 175.852 35.7959 177.999C42.4182 183.413 51.2171 185.84 59.6456 184.673C66.6847 183.693 73.5386 180.239 78.2622 174.826C78.3548 174.732 78.4011 174.639 78.4938 174.546C78.5864 174.452 78.6327 174.359 78.7253 174.266C78.8179 174.172 78.8642 174.079 78.9569 173.986C79.0495 173.892 79.0958 173.799 79.1884 173.706C79.2347 173.612 79.3273 173.519 79.3736 173.472C79.42 173.379 79.5126 173.286 79.5589 173.239C79.6052 173.192 79.6978 173.052 79.7441 173.006C79.7904 172.912 79.8831 172.819 79.9294 172.726C79.9757 172.632 80.022 172.586 80.0683 172.492C80.1146 172.399 80.1609 172.352 80.2072 172.259C80.2535 172.166 80.2999 172.119 80.3462 172.026C80.3925 171.932 80.4388 171.886 80.4851 171.792C80.5314 171.699 80.5777 171.652 80.624 171.559C80.6703 171.465 80.7166 171.419 80.763 171.325C80.763 171.232 80.8556 171.185 80.9019 171.092C80.9019 170.999 80.9945 170.952 81.0408 170.859C81.0408 170.812 81.1334 170.719 81.1334 170.672C81.1334 170.625 81.2261 170.532 81.2261 170.485C81.2261 170.439 81.3187 170.345 81.3187 170.299C81.3187 170.252 81.4113 170.159 81.4113 170.112C81.4113 170.065 81.5039 169.972 81.5039 169.925C81.5039 169.879 81.5502 169.785 81.5965 169.739C81.6428 169.692 81.6428 169.599 81.6892 169.552C81.7355 169.505 81.7355 169.412 81.7818 169.365C81.7818 169.319 81.8281 169.225 81.8744 169.179C81.8744 169.132 81.9207 169.039 82.0133 168.945C82.0133 168.945 82.0133 168.852 82.0596 168.805C82.0596 168.759 82.1059 168.665 82.1523 168.619C82.1523 168.572 82.1986 168.525 82.2449 168.432C82.2449 168.385 82.2912 168.339 82.3375 168.245C82.3375 168.199 82.3838 168.152 82.4301 168.059C82.4764 167.965 82.4764 167.919 82.5227 167.872C82.5227 167.825 82.569 167.732 82.6154 167.685C82.6154 167.639 82.6617 167.545 82.708 167.499C82.7543 167.452 82.7543 167.359 82.8006 167.312C82.8469 167.265 82.8469 167.172 82.8932 167.125C82.8932 167.079 82.8932 167.032 82.9395 166.939C82.9395 166.892 82.9395 166.845 82.9858 166.752C83.0321 166.658 82.9858 166.658 83.0321 166.565C83.0785 166.472 83.0321 166.472 83.0785 166.378C83.0785 166.332 83.0785 166.285 83.1248 166.238C83.1248 166.192 83.1248 166.145 83.1711 166.052C83.1711 166.005 83.1711 165.958 83.2174 165.865C83.2174 165.818 83.2174 165.772 83.2637 165.678C83.31 165.585 83.2637 165.585 83.31 165.492C83.31 165.445 83.31 165.398 83.3563 165.305C83.4026 165.212 83.3563 165.212 83.4026 165.118C83.4026 165.072 83.4026 165.025 83.4489 164.932C83.4489 164.885 83.4489 164.838 83.4952 164.792C83.5416 164.745 83.4953 164.698 83.5416 164.652C83.5416 164.605 83.5416 164.558 83.5879 164.512C83.6342 164.465 83.5879 164.418 83.6342 164.372C83.6342 164.325 83.6342 164.278 83.6342 164.232C83.6342 164.185 83.6342 164.138 83.6342 164.092C83.6342 164.045 83.6342 163.998 83.7268 163.765C83.7268 163.718 83.7268 163.672 83.7268 163.625C83.7268 163.578 83.7268 163.532 83.7268 163.485C83.7268 163.438 83.7268 163.392 83.7268 163.345C83.7268 163.298 83.7268 163.252 83.7268 163.205C83.7268 163.158 83.7268 163.112 83.7268 163.065C83.7268 163.018 83.7268 162.972 83.7268 162.925C83.7268 162.878 83.7268 162.832 83.7268 162.785C83.7268 162.738 83.7268 162.692 83.7268 162.645C83.7268 162.598 83.7268 162.552 83.7268 162.505C83.7268 162.458 83.7268 162.412 83.7268 162.365C83.7268 162.318 83.7268 162.271 83.7268 162.225C83.7268 162.178 83.7268 162.131 83.7268 162.085C83.7268 162.038 83.7268 161.991 83.7268 161.945C83.7268 161.898 83.7268 161.851 83.7268 161.805C83.7268 161.758 83.7268 161.711 83.7731 161.478C83.7731 161.431 83.7731 161.385 83.7731 161.338C83.7731 161.291 83.7731 161.245 83.7731 161.198C83.7731 161.151 83.7731 161.105 83.7731 161.058C83.7731 161.011 83.7731 160.965 83.7731 160.918C83.7731 160.871 83.7731 160.825 83.7731 160.731C83.7731 160.685 83.7731 160.638 83.7731 160.545C83.7731 160.498 83.7731 160.451 83.7731 160.358C83.7731 160.311 83.7731 160.265 83.7731 160.171C83.7731 160.125 83.7731 160.078 83.7731 159.985C83.7731 159.938 83.7731 159.891 83.7731 159.798C83.7731 159.705 83.7731 159.705 83.7731 159.611C83.7731 159.565 83.7731 159.518 83.7731 159.425C83.7731 159.378 83.7731 159.331 83.7731 159.285C83.7731 159.238 83.7731 159.191 83.7731 159.145C83.7731 159.098 83.7731 159.051 83.7731 159.005C83.7731 158.958 83.7731 158.911 83.7731 158.865C84.3751 158.678 85.0698 158.491 85.7644 158.351C86.4591 158.211 87.2 158.025 87.941 157.931C88.682 157.791 89.4229 157.698 90.2102 157.604C90.9512 157.511 91.7384 157.511 92.4794 157.511C93.2204 157.511 93.9613 157.511 94.7023 157.604C95.4432 157.698 96.1842 157.791 96.9252 157.931C97.6661 158.071 98.4071 158.211 99.1017 158.351C99.7964 158.491 100.491 158.678 101.093 158.865C101.278 162.458 102.158 165.912 103.733 169.039C105.261 172.166 107.438 174.966 110.077 177.346C117.904 184.393 129.342 186.727 139.345 183.646C146.57 181.453 153.331 176.319 156.989 169.599C156.989 169.552 157.036 169.459 157.082 169.412C157.082 169.365 157.128 169.272 157.175 169.225C157.221 169.179 157.221 169.085 157.267 169.039C157.313 168.992 157.313 168.899 157.36 168.852C157.36 168.805 157.406 168.712 157.452 168.665C157.452 168.619 157.499 168.525 157.545 168.479C157.545 168.432 157.591 168.339 157.638 168.292C157.638 168.245 157.684 168.199 157.73 168.105C157.73 168.059 157.777 168.012 157.823 167.919C157.869 167.825 157.869 167.825 157.915 167.732C157.915 167.685 157.962 167.639 158.008 167.545C158.008 167.499 158.054 167.452 158.101 167.359C158.147 167.265 158.147 167.265 158.193 167.172C158.193 167.125 158.24 167.079 158.286 166.985C158.286 166.938 158.332 166.892 158.379 166.798C158.379 166.752 158.379 166.705 158.425 166.612C158.471 166.518 158.425 166.518 158.471 166.425C158.471 166.378 158.471 166.332 158.518 166.238C158.518 166.192 158.518 166.145 158.564 166.052C158.564 166.005 158.564 165.958 158.61 165.912C158.61 165.865 158.61 165.818 158.703 165.585C158.703 165.538 158.703 165.492 158.749 165.445C158.749 165.398 158.749 165.352 158.795 165.305C158.795 165.258 158.795 165.212 158.842 165.165C158.842 165.118 158.842 165.072 158.888 165.025C158.888 164.978 158.888 164.932 158.934 164.885C158.981 164.838 158.934 164.792 158.981 164.745C158.981 164.698 158.981 164.652 159.027 164.605C159.027 164.558 159.027 164.512 159.073 164.465C159.12 164.418 159.073 164.372 159.12 164.325C159.12 164.278 159.12 164.232 159.12 164.185C159.12 164.138 159.12 164.092 159.12 164.045C159.12 163.998 159.12 163.952 159.12 163.905C159.12 163.858 159.12 163.812 159.12 163.765C159.12 163.718 159.12 163.672 159.12 163.625C159.12 163.578 159.12 163.532 159.12 163.485C159.12 163.438 159.12 163.392 159.12 163.345C159.12 163.298 159.12 163.252 159.12 163.205C159.12 163.158 159.12 163.112 159.12 163.065C159.12 163.018 159.12 162.972 159.12 162.925C159.12 162.878 159.12 162.832 159.12 162.785C159.12 162.738 159.12 162.692 159.12 162.645C159.12 162.598 159.12 162.552 159.12 162.505C159.12 162.458 159.12 162.412 159.12 162.365C159.12 162.318 159.12 162.271 159.12 162.225C159.12 162.178 159.12 162.131 159.12 162.085C159.12 162.038 159.12 161.991 159.12 161.945C159.12 161.898 159.12 161.851 159.12 161.805V161.665C159.12 161.665 159.12 161.571 159.212 161.291C159.212 161.291 159.722 157.698 159.722 157.651L161.389 157.324Z" fill="#666666"/>
</g>
<defs>
<linearGradient id="paint0_linear_501_4995" x1="34.1317" y1="39.3893" x2="152.871" y2="39.3893" gradientUnits="userSpaceOnUse">
<stop stop-color="#F0F2F2"/>
<stop offset="0.18" stop-color="#E7EAEA"/>
<stop offset="0.47" stop-color="#CFD4D6"/>
<stop offset="0.83" stop-color="#A9B2B5"/>
<stop offset="1" stop-color="#95A0A4"/>
</linearGradient>
<linearGradient id="paint1_linear_501_4995" x1="45.9396" y1="41.6761" x2="141.844" y2="136.887" gradientUnits="userSpaceOnUse">
<stop stop-color="#F0F2F2"/>
<stop offset="0.18" stop-color="#E7EAEA"/>
<stop offset="0.47" stop-color="#CFD4D6"/>
<stop offset="0.83" stop-color="#A9B2B5"/>
<stop offset="1" stop-color="#95A0A4"/>
</linearGradient>
<linearGradient id="paint2_linear_501_4995" x1="54.1363" y1="114.155" x2="133.473" y2="192.879" gradientUnits="userSpaceOnUse">
<stop stop-color="#F0F2F2"/>
<stop offset="0.18" stop-color="#E7EAEA"/>
<stop offset="0.47" stop-color="#CFD4D6"/>
<stop offset="0.83" stop-color="#A9B2B5"/>
<stop offset="1" stop-color="#95A0A4"/>
</linearGradient>
<clipPath id="clip0_501_4995">
<rect width="187" height="185" fill="white"/>
</clipPath>
</defs>
</svg>
