<svg width="166" height="185" viewBox="0 0 166 185" fill="none" xmlns="http://www.w3.org/2000/svg">
<g clip-path="url(#clip0_501_4786)">
<path d="M82.9815 0C89.8105 0 96.3219 1.36979 102.238 3.83541C108.154 6.30104 113.474 9.86249 117.96 14.2458C122.447 18.6292 126.06 23.8735 128.561 29.7049C131.062 35.5363 132.452 41.9156 132.452 48.6471C132.452 55.3787 131.062 61.758 128.561 67.5894C126.06 73.4208 122.407 78.6651 117.96 83.0484C113.513 87.4318 108.154 91.0324 102.238 93.4589C96.3219 95.8853 89.8502 97.2943 83.0212 97.2943C76.1923 97.2943 69.6809 95.9245 63.7651 93.4589C57.8493 90.9932 52.529 87.4318 48.0425 83.0484C43.556 78.6651 39.943 73.4208 37.4417 67.5894C34.9404 61.758 33.5508 55.3787 33.5508 48.6471C33.5508 41.9156 34.9404 35.5363 37.4417 29.7049C39.943 23.8735 43.556 18.6292 48.0425 14.2458C52.529 9.86249 57.8493 6.30104 63.7651 3.83541C69.6809 1.36979 76.1923 0 83.0212 0L82.9815 0Z" fill="url(#paint0_linear_501_4786)"/>
<mask id="mask0_501_4786" style="mask-type:luminance" maskUnits="userSpaceOnUse" x="33" y="53" width="100" height="48">
<path d="M132.171 53.3828L131.814 57.14C131.218 63.2453 129.471 69.0376 126.732 74.2819C123.992 79.5262 120.379 84.2227 116.012 88.1364C111.644 92.05 106.562 95.2201 100.964 97.3726C95.3658 99.5252 89.2912 100.738 82.9386 100.738C76.5861 100.738 70.4718 99.5252 64.8736 97.3726C59.2754 95.2201 54.1934 92.05 49.826 88.1364C45.4586 84.2227 41.8456 79.5262 39.1458 74.2819C36.4459 69.0376 34.699 63.2453 34.1034 57.14L33.7461 53.3828C34.3416 59.5664 36.1283 65.3587 38.8281 70.6422C41.528 75.9256 45.2204 80.6221 49.5878 84.5749C53.9551 88.5277 59.1166 91.6978 64.7148 93.8895C70.3129 96.0811 76.467 97.2944 82.8989 97.2944C89.3309 97.2944 95.4452 96.0811 101.043 93.8895C106.642 91.6978 111.803 88.5277 116.21 84.5749C120.617 80.6221 124.27 75.8865 127.009 70.6422C129.749 65.3978 131.496 59.5273 132.131 53.3828H132.171Z" fill="white"/>
</mask>
<g mask="url(#mask0_501_4786)">
<path d="M132.171 53.3828L131.814 57.14C131.218 63.2453 129.471 69.0376 126.732 74.2819C123.992 79.5262 120.379 84.2227 116.012 88.1364C111.644 92.05 106.562 95.2201 100.964 97.3726C95.3658 99.5252 89.2912 100.738 82.9386 100.738C76.5861 100.738 70.4718 99.5252 64.8736 97.3726C59.2754 95.2201 54.1934 92.05 49.826 88.1364C45.4586 84.2227 41.8456 79.5262 39.1458 74.2819C36.4459 69.0376 34.699 63.2453 34.1034 57.14L33.7461 53.3828C34.3416 59.5664 36.1283 65.3587 38.8281 70.6422C41.528 75.9256 45.2204 80.6221 49.5878 84.5749C53.9551 88.5277 59.1166 91.6978 64.7148 93.8895C70.3129 96.0811 76.467 97.2944 82.8989 97.2944C89.3309 97.2944 95.4452 96.0811 101.043 93.8895C106.642 91.6978 111.803 88.5277 116.21 84.5749C120.617 80.6221 124.27 75.8865 127.009 70.6422C129.749 65.3978 131.496 59.5273 132.131 53.3828" fill="#6E6E6E"/>
</g>
<path d="M107.001 118.037C110.495 118.037 113.552 118.037 116.252 118.037C118.951 118.037 121.373 118.115 123.517 118.232C125.661 118.35 127.567 118.506 129.354 118.78C131.14 119.054 132.729 119.367 134.317 119.837C137.89 120.894 141.265 122.381 144.401 124.22C147.538 126.06 150.397 128.29 152.938 130.795C155.479 133.3 157.742 136.157 159.608 139.21C161.474 142.262 162.983 145.628 164.055 149.15C164.531 150.716 164.888 152.281 165.166 154.043C165.444 155.804 165.603 157.682 165.722 159.796C165.841 161.909 165.921 164.257 165.921 166.958C165.921 169.658 165.921 172.672 165.921 176.077C165.921 176.898 165.762 177.681 165.444 178.425C165.127 179.168 164.69 179.795 164.134 180.382C163.578 180.969 162.903 181.399 162.188 181.712C161.474 182.025 160.6 182.182 159.727 182.182H6.27314C5.39967 182.182 4.56589 182.025 3.81153 181.712C3.05716 181.399 2.38221 180.969 1.82636 180.421C1.27051 179.873 0.794068 179.208 0.476441 178.503C0.158814 177.799 0 176.977 0 176.116C0 172.672 0 169.658 0 166.997C0 164.336 0.0794069 161.948 0.198517 159.835C0.317627 157.721 0.476441 155.843 0.754365 154.082C1.03229 152.321 1.34992 150.755 1.82636 149.19C2.93805 145.667 4.44678 142.341 6.35255 139.249C8.25831 136.157 10.4817 133.339 13.0227 130.834C15.5637 128.33 18.4224 126.099 21.559 124.259C24.6955 122.42 28.0703 120.933 31.6436 119.876C33.2318 119.406 34.8596 119.093 36.6066 118.819C38.3535 118.545 40.299 118.389 42.443 118.271C44.5869 118.154 46.9692 118.115 49.7087 118.076C52.4482 118.037 55.5054 118.076 58.9596 118.076H106.961L107.001 118.037Z" fill="url(#paint1_linear_501_4786)"/>
<path d="M165.841 177.407L165.206 180.225C165.047 180.89 164.809 181.517 164.452 182.104C164.094 182.691 163.658 183.199 163.142 183.63C162.625 184.06 162.03 184.413 161.355 184.648C160.68 184.882 159.965 185 159.211 185L159.767 182.221C160.521 182.221 161.236 182.104 161.911 181.869C162.586 181.634 163.181 181.282 163.697 180.851C164.214 180.421 164.69 179.912 165.047 179.325C165.405 178.738 165.683 178.112 165.802 177.446L165.841 177.407Z" fill="#6E6E6E"/>
<mask id="mask1_501_4786" style="mask-type:luminance" maskUnits="userSpaceOnUse" x="159" y="177" width="7" height="8">
<path d="M165.841 177.407L165.206 180.225C165.047 180.89 164.809 181.517 164.452 182.104C164.094 182.691 163.658 183.199 163.142 183.63C162.625 184.06 162.03 184.413 161.355 184.648C160.68 184.882 159.965 185 159.211 185L159.767 182.221C160.521 182.221 161.236 182.104 161.911 181.869C162.586 181.634 163.181 181.282 163.697 180.851C164.214 180.421 164.69 179.912 165.047 179.325C165.405 178.738 165.683 178.112 165.802 177.446L165.841 177.407Z" fill="white"/>
</mask>
<g mask="url(#mask1_501_4786)">
<path d="M165.841 177.407L165.206 180.225C165.047 180.89 164.809 181.517 164.452 182.104C164.094 182.691 163.658 183.199 163.142 183.63C162.625 184.06 162.03 184.413 161.355 184.648C160.68 184.882 159.965 185 159.211 185L159.767 182.221C160.521 182.221 161.236 182.104 161.911 181.869C162.586 181.634 163.181 181.282 163.697 180.851C164.214 180.421 164.69 179.912 165.047 179.325C165.405 178.738 165.683 178.112 165.802 177.446" fill="#6E6E6E"/>
</g>
<path d="M159.807 182.221L159.251 185H6.86899L6.27344 182.221H159.807Z" fill="#6E6E6E"/>
<path d="M0.752442 180.265C0.553925 179.325 0.355408 178.386 0.117188 177.447C0.276001 178.151 0.553925 178.777 0.911256 179.364C1.26859 179.952 1.74503 180.46 2.30088 180.891C2.85672 181.321 3.45227 181.634 4.12723 181.869C4.80219 182.104 5.51685 182.221 6.27122 182.221L6.82707 185C6.0727 185 5.35804 184.883 4.68308 184.648C4.00812 184.413 3.41257 184.1 2.85672 183.67C2.30088 183.239 1.86414 182.73 1.50681 182.182C1.14948 181.634 0.871553 180.969 0.712739 180.265H0.752442Z" fill="#6E6E6E"/>
<mask id="mask2_501_4786" style="mask-type:luminance" maskUnits="userSpaceOnUse" x="0" y="177" width="7" height="8">
<path d="M0.752442 180.265C0.553925 179.325 0.355408 178.386 0.117188 177.447C0.276001 178.151 0.553925 178.777 0.911256 179.364C1.26859 179.952 1.74503 180.46 2.30088 180.891C2.85672 181.321 3.45227 181.634 4.12723 181.869C4.80219 182.104 5.51685 182.221 6.27122 182.221L6.82707 185C6.0727 185 5.35804 184.883 4.68308 184.648C4.00812 184.413 3.41257 184.1 2.85672 183.67C2.30088 183.239 1.86414 182.73 1.50681 182.182C1.14948 181.634 0.871553 180.969 0.712739 180.265H0.752442Z" fill="white"/>
</mask>
<g mask="url(#mask2_501_4786)">
<path d="M6.27186 182.221L6.82771 185C6.07334 185 5.35868 184.883 4.68372 184.648C4.00876 184.413 3.41321 184.1 2.85736 183.67C2.30152 183.239 1.86478 182.73 1.50745 182.182C1.15012 181.634 0.872193 180.969 0.71338 180.265L0.078125 177.447C0.236939 178.151 0.514863 178.777 0.872193 179.364C1.22952 179.952 1.70597 180.46 2.26181 180.891C2.81766 181.321 3.41321 181.634 4.08817 181.869C4.76313 182.104 5.47779 182.221 6.23216 182.221" fill="#6E6E6E"/>
</g>
</g>
<defs>
<linearGradient id="paint0_linear_501_4786" x1="33.5508" y1="48.6471" x2="132.412" y2="48.6471" gradientUnits="userSpaceOnUse">
<stop stop-color="#F0F2F2"/>
<stop offset="0.18" stop-color="#E7EAEA"/>
<stop offset="0.47" stop-color="#CFD4D6"/>
<stop offset="0.83" stop-color="#A9B2B5"/>
<stop offset="1" stop-color="#95A0A4"/>
</linearGradient>
<linearGradient id="paint1_linear_501_4786" x1="17.271" y1="120.659" x2="152.901" y2="200.112" gradientUnits="userSpaceOnUse">
<stop stop-color="#F0F2F2"/>
<stop offset="0.18" stop-color="#E7EAEA"/>
<stop offset="0.47" stop-color="#CFD4D6"/>
<stop offset="0.83" stop-color="#A9B2B5"/>
<stop offset="1" stop-color="#95A0A4"/>
</linearGradient>
<clipPath id="clip0_501_4786">
<rect width="166" height="185" fill="white"/>
</clipPath>
</defs>
</svg>
