<svg width="184" height="134" viewBox="0 0 184 134" fill="none" xmlns="http://www.w3.org/2000/svg">
<g clip-path="url(#clip0_501_4989)">
<path d="M91.9111 0C98.593 0 105.026 1.132 111.033 3.21911C117.039 5.30623 122.584 8.34847 127.524 12.2043C132.464 16.0602 136.729 20.7297 140.177 26.0359C143.624 31.3421 146.219 37.2851 147.818 43.688C153.043 44.6431 157.912 46.4826 162.284 49.0296C166.656 51.5766 170.53 54.8664 173.728 58.7223C176.927 62.5781 179.522 66.9646 181.263 71.7402C183.005 76.5158 183.964 81.6806 184 87.0929C184 93.1774 182.756 98.9789 180.481 104.285C178.207 109.591 174.937 114.367 170.921 118.364C166.904 122.362 162.071 125.616 156.775 127.88C151.479 130.144 145.615 131.382 139.502 131.382H44.4984C38.3852 131.382 32.5563 130.144 27.225 127.88C21.8938 125.616 17.0956 122.362 13.0794 118.364C9.06316 114.367 5.79332 109.591 3.51864 104.285C1.24396 98.9789 0 93.142 0 87.0576C0 81.716 0.959629 76.5512 2.70118 71.7756C4.44273 67 7.00174 62.6135 10.236 58.7577C13.4703 54.9018 17.3089 51.6119 21.645 49.0649C25.9811 46.518 30.8503 44.6431 36.0394 43.7233C37.5677 37.3205 40.1623 31.3775 43.6098 26.0713C47.0574 20.765 51.3224 16.0956 56.2627 12.2397C61.203 8.38384 66.7475 5.34161 72.7541 3.25449C78.7607 1.16737 85.1937 0.0353749 91.8756 0.0353749L91.9111 0Z" fill="url(#paint0_linear_501_4989)"/>
<path d="M181.831 100.642C181.44 101.809 181.014 102.976 180.516 104.108C180.019 105.24 179.521 106.372 178.952 107.434C178.384 108.53 177.78 109.556 177.104 110.582C176.465 111.608 175.754 112.598 175.007 113.589C174.261 114.544 173.515 115.499 172.697 116.383C172.057 117.091 171.346 117.798 170.671 118.47C170.031 119.107 169.356 119.709 168.681 120.275C168.325 120.558 168.006 120.876 167.65 121.159C166.726 121.902 165.766 122.645 164.771 123.317C164.665 123.388 164.558 123.494 164.451 123.564C163.35 124.307 162.177 125.015 161.004 125.652C160.648 125.864 160.257 126.041 159.902 126.218C159.085 126.642 158.232 127.067 157.379 127.456C156.917 127.668 156.454 127.845 155.957 128.022C155.139 128.34 154.358 128.658 153.54 128.906C153.042 129.083 152.509 129.224 152.012 129.401C151.194 129.649 150.341 129.861 149.488 130.038C148.991 130.144 148.458 130.286 147.96 130.392C147.036 130.569 146.112 130.71 145.152 130.816C144.69 130.887 144.264 130.958 143.802 130.993C142.38 131.135 140.994 131.205 139.537 131.205H44.4977C39.2376 131.205 34.1906 130.286 29.4991 128.588C24.8076 126.89 20.4715 124.449 16.6685 121.371C12.8655 118.294 9.56013 114.615 6.89449 110.476C5.57945 108.424 4.44211 106.231 3.44694 103.967C2.48731 101.703 1.70539 99.3327 1.13672 96.8564L1.81201 99.7572C2.94935 104.604 4.90415 109.167 7.4987 113.27C10.1288 117.374 13.3986 121.017 17.2016 124.06C21.0046 127.102 25.3052 129.543 29.9611 131.205C34.6171 132.868 39.6285 133.788 44.8532 133.788H139.11C140.532 133.788 141.953 133.717 143.34 133.576C143.802 133.54 144.228 133.469 144.69 133.399C145.614 133.293 146.574 133.151 147.498 132.974C147.676 132.939 147.889 132.939 148.067 132.903C148.386 132.833 148.706 132.727 149.026 132.656C149.879 132.479 150.697 132.267 151.514 132.019C152.012 131.878 152.545 131.701 153.042 131.559C153.362 131.453 153.718 131.382 154.038 131.241C154.535 131.064 154.997 130.852 155.459 130.675C155.779 130.569 156.099 130.463 156.383 130.321C156.561 130.25 156.703 130.18 156.845 130.109C157.698 129.72 158.551 129.331 159.369 128.871C159.724 128.694 160.115 128.517 160.471 128.305C161.644 127.668 162.781 126.96 163.883 126.218C163.989 126.147 164.096 126.076 164.203 125.97C165.091 125.369 165.944 124.732 166.762 124.095C166.868 124.024 166.939 123.918 167.046 123.847C167.401 123.564 167.721 123.246 168.041 122.963C168.716 122.397 169.356 121.796 169.996 121.159C170.138 121.017 170.28 120.911 170.422 120.77C170.6 120.593 170.778 120.416 170.956 120.239C171.133 120.062 171.311 119.885 171.489 119.709C171.666 119.532 171.844 119.355 171.986 119.143C172.128 118.966 172.306 118.789 172.448 118.612C172.555 118.47 172.697 118.329 172.804 118.187C172.91 118.046 173.052 117.904 173.159 117.763C173.266 117.621 173.408 117.48 173.515 117.338C173.621 117.197 173.763 117.055 173.87 116.914C173.977 116.772 174.083 116.631 174.19 116.525C174.19 116.489 174.261 116.454 174.296 116.383C174.368 116.313 174.439 116.207 174.474 116.136C174.581 115.994 174.687 115.853 174.758 115.711C174.865 115.57 174.972 115.428 175.043 115.287C175.114 115.181 175.221 115.039 175.292 114.933C175.363 114.827 175.469 114.685 175.54 114.579C175.612 114.473 175.718 114.332 175.789 114.226C175.86 114.119 175.967 113.978 176.038 113.872C176.109 113.766 176.18 113.66 176.251 113.518C176.251 113.518 176.287 113.447 176.322 113.412C176.358 113.341 176.429 113.27 176.465 113.164C176.536 113.058 176.607 112.917 176.678 112.811C176.749 112.704 176.82 112.563 176.891 112.457C176.962 112.351 177.033 112.245 177.069 112.138C177.14 112.032 177.211 111.926 177.246 111.82C177.318 111.714 177.389 111.608 177.424 111.502C177.495 111.396 177.531 111.289 177.602 111.183C177.673 111.077 177.708 110.971 177.78 110.865C177.851 110.759 177.886 110.653 177.957 110.547C177.993 110.44 178.064 110.37 178.099 110.264C178.171 110.157 178.206 110.051 178.277 109.945C178.313 109.839 178.384 109.733 178.419 109.662C178.455 109.556 178.526 109.45 178.561 109.379C178.597 109.273 178.668 109.167 178.704 109.096C178.739 108.99 178.81 108.884 178.846 108.813C178.881 108.707 178.952 108.601 178.988 108.53C179.024 108.424 179.095 108.318 179.13 108.247C179.166 108.176 179.237 108.035 179.272 107.929C179.308 107.823 179.379 107.717 179.414 107.61C179.45 107.504 179.486 107.434 179.557 107.327C179.592 107.221 179.628 107.151 179.663 107.044C179.699 106.938 179.734 106.868 179.77 106.761C179.805 106.655 179.841 106.585 179.877 106.478C179.912 106.372 179.948 106.302 179.983 106.195C180.019 106.089 180.054 106.019 180.09 105.912C180.125 105.806 180.161 105.736 180.196 105.629C180.232 105.523 180.267 105.453 180.303 105.346C180.303 105.24 180.374 105.17 180.41 105.063C180.41 104.957 180.481 104.887 180.516 104.78C180.516 104.674 180.587 104.604 180.623 104.497C180.658 104.391 180.694 104.321 180.73 104.214C180.73 104.108 180.801 104.038 180.836 103.931C180.836 103.825 180.907 103.755 180.943 103.648C180.943 103.648 180.943 103.613 180.943 103.578C180.943 103.507 180.978 103.436 181.014 103.365C181.014 103.259 181.085 103.189 181.085 103.082C181.085 102.976 181.156 102.906 181.156 102.799C181.156 102.693 181.227 102.623 181.227 102.516C181.227 102.41 181.298 102.34 181.298 102.233C181.298 102.127 181.334 102.057 181.369 101.95C181.369 101.844 181.405 101.774 181.44 101.667C181.44 101.561 181.476 101.491 181.511 101.384C181.511 101.278 181.547 101.208 181.583 101.101C181.583 100.995 181.618 100.925 181.654 100.818C181.654 100.748 181.689 100.677 181.725 100.606C181.725 100.535 181.76 100.465 181.796 100.394C181.796 100.323 181.831 100.252 181.867 100.182C181.867 100.111 181.902 100.04 181.938 99.9341L182.613 97.0333C182.329 98.2714 182.009 99.4742 181.618 100.642H181.831Z" fill="#6E6E6E"/>
</g>
<defs>
<linearGradient id="paint0_linear_501_4989" x1="0" y1="65.6558" x2="184" y2="65.6558" gradientUnits="userSpaceOnUse">
<stop stop-color="#F0F2F2"/>
<stop offset="0.18" stop-color="#E7EAEA"/>
<stop offset="0.47" stop-color="#CFD4D6"/>
<stop offset="0.83" stop-color="#A9B2B5"/>
<stop offset="1" stop-color="#95A0A4"/>
</linearGradient>
<clipPath id="clip0_501_4989">
<rect width="184" height="134" fill="white"/>
</clipPath>
</defs>
</svg>
