<svg width="157" height="179" viewBox="0 0 157 179" fill="none" xmlns="http://www.w3.org/2000/svg">
<path d="M78.4167 0C90.3899 0 101.26 0.81635 110.822 2.20414C120.384 3.59194 128.721 5.51036 135.504 7.71451C142.287 9.91865 147.641 12.4085 151.237 14.8984C154.833 17.3883 156.753 19.8781 156.753 22.0414C156.753 24.2048 154.833 26.6946 151.237 29.1845C147.641 31.6744 142.328 34.1234 135.504 36.3276C128.68 38.5317 120.384 40.4501 110.822 41.8379C101.26 43.2257 90.349 44.0421 78.3758 44.0421C66.4026 44.0421 55.5735 43.2257 45.9705 41.8379C36.3674 40.4501 28.0719 38.5725 21.2885 36.3684C14.505 34.1642 9.15179 31.7152 5.55573 29.2253C1.95968 26.7355 0.0390625 24.2864 0.0390625 22.0823C0.0390625 19.8781 1.95968 17.3474 5.55573 14.8576C9.15179 12.3677 14.4641 9.87783 21.2885 7.67369C28.1128 5.46954 36.4082 3.55112 45.9705 2.20414C55.5327 0.857167 66.4434 0 78.3758 0H78.4167Z" fill="url(#paint0_linear_501_4738)"/>
<path d="M156.758 22.6134L156.185 26.6951C155.859 28.8584 153.774 31.2667 150.056 33.6749C146.337 36.0831 141.025 38.4914 134.282 40.6139C127.54 42.7364 119.408 44.5732 110.009 45.9202C100.61 47.2671 90.0263 48.0427 78.4209 48.0427C66.8154 48.0427 56.2316 47.2671 46.8737 45.961C37.5158 44.6548 29.3838 42.818 22.6412 40.6955C15.8986 38.573 10.5862 36.2056 6.8676 33.7974C3.14895 31.3891 0.983149 28.9401 0.697099 26.7359C0.492778 25.389 0.288457 24.0012 0.125 22.6542C0.451914 24.8992 2.57685 27.3482 6.33636 29.7564C10.0959 32.1647 15.4491 34.5729 22.2325 36.6954C29.016 38.8179 37.2297 40.6547 46.6694 41.9609C56.109 43.267 66.7746 44.0426 78.4617 44.0426C90.1489 44.0426 100.855 43.267 110.295 41.92C119.735 40.5731 127.948 38.7363 134.732 36.573C141.515 34.4096 146.868 32.0422 150.628 29.5932C154.387 27.1441 156.512 24.7359 156.798 22.5317L156.758 22.6134Z" fill="#6E6E6E"/>
<mask id="mask0_501_4738" style="mask-type:luminance" maskUnits="userSpaceOnUse" x="0" y="22" width="157" height="27">
<path d="M156.758 22.6141L156.185 26.6959C155.859 28.8592 153.774 31.2674 150.056 33.6756C146.337 36.0839 141.025 38.4921 134.282 40.6146C127.54 42.7371 119.408 44.5739 110.009 45.9209C100.61 47.2679 90.0263 48.0434 78.4209 48.0434C66.8154 48.0434 56.2316 47.2679 46.8737 45.9617C37.5158 44.6556 29.3838 42.8188 22.6412 40.6963C15.8986 38.5737 10.5862 36.2063 6.8676 33.7981C3.14895 31.3899 0.983149 28.9408 0.697099 26.7367C0.492778 25.3897 0.288457 24.0019 0.125 22.6549C0.451914 24.8999 2.57685 27.3489 6.33636 29.7572C10.0959 32.1654 15.4491 34.5736 22.2325 36.6961C29.016 38.8186 37.2297 40.6554 46.6694 41.9616C56.109 43.2678 66.7746 44.0433 78.4617 44.0433C90.1489 44.0433 100.855 43.2678 110.295 41.9208C119.735 40.5738 127.948 38.737 134.732 36.5737C141.515 34.4104 146.868 32.0429 150.628 29.5939C154.387 27.1448 156.512 24.7366 156.798 22.5325L156.758 22.6141Z" fill="white"/>
</mask>
<g mask="url(#mask0_501_4738)">
<path d="M156.758 22.6147L156.145 26.7373V26.7781L156.717 22.6964L156.758 22.6556V22.6147Z" fill="#6E6E6E"/>
<path d="M156.718 22.6966L156.146 26.7783C156.146 26.7783 156.146 26.9008 156.146 26.9416C156.146 26.9824 156.146 27.064 156.105 27.1049C156.064 27.1457 156.105 27.2273 156.064 27.309C156.023 27.3906 156.064 27.4314 156.023 27.513L156.596 23.4313C156.596 23.4313 156.596 23.3088 156.636 23.2272C156.677 23.1456 156.636 23.1048 156.677 23.0231C156.718 22.9415 156.677 22.9007 156.718 22.819C156.759 22.7374 156.718 22.6966 156.718 22.6558" fill="#6E6E6E"/>
<path d="M156.553 23.4312L155.98 27.5129C155.98 27.5129 155.899 27.717 155.858 27.7986C155.817 27.8803 155.776 28.0027 155.735 28.0843C155.694 28.166 155.654 28.2884 155.613 28.3701C155.572 28.4517 155.49 28.5742 155.449 28.6558L156.021 24.574C156.021 24.574 156.144 24.37 156.185 24.2883C156.226 24.2067 156.266 24.0842 156.348 24.0026C156.43 23.921 156.43 23.7985 156.471 23.7169C156.512 23.6352 156.553 23.5128 156.593 23.4312" fill="#6E6E6E"/>
<path d="M156.024 24.5737L155.452 28.6554C154.226 30.778 151.488 33.0637 147.401 35.2679C143.315 37.472 137.88 39.6354 131.26 41.513C124.64 43.3906 116.835 45.0233 107.967 46.1662C99.1 47.309 89.2108 48.0029 78.4635 48.0029C66.8581 48.0029 56.2742 47.2274 46.9163 45.9212C37.5584 44.6151 29.4265 42.7783 22.6839 40.6558C15.9413 38.5333 10.6289 36.1659 6.91026 33.7576C3.19162 31.3494 0.98495 28.9412 0.698901 26.737L0.0859375 22.6553C0.412851 24.9002 2.53779 27.3493 6.2973 29.7575C10.0568 32.1657 15.41 34.574 22.1935 36.6965C28.9769 38.819 37.1907 40.6558 46.6303 41.9619C56.0699 43.2681 66.7355 44.0436 78.4227 44.0436C89.2925 44.0436 99.2634 43.3497 108.172 42.2069C117.08 41.064 124.967 39.4313 131.628 37.5128C138.289 35.5944 143.765 33.4311 147.892 31.2269C152.019 29.0228 154.757 26.6962 156.024 24.5737Z" fill="#6E6E6E"/>
</g>
<path d="M156.796 40.1233V66.124C156.796 68.369 154.916 70.8589 151.279 73.3487C147.642 75.8386 142.371 78.3285 135.547 80.4918C128.722 82.6551 120.427 84.6144 110.824 85.9613C101.221 87.3083 90.3508 88.1655 78.3776 88.1655C66.4044 88.1655 55.5345 87.3491 45.9723 85.9613C36.41 84.5735 28.0737 82.6959 21.2903 80.4918C14.5068 78.2876 9.15359 75.8386 5.55753 73.3487C1.96148 70.8589 0 68.369 0 66.124V40.1233C4.12729 42.7764 9.15359 45.1438 14.8746 47.1439C20.5956 49.144 26.9704 50.8175 33.7947 52.1645C40.619 53.5114 47.8929 54.4911 55.4119 55.1849C62.9309 55.8788 70.6542 56.2054 78.3776 56.2054C86.1009 56.2054 93.8243 55.8788 101.343 55.1849C108.862 54.4911 116.136 53.5114 122.96 52.1645C129.785 50.8175 136.16 49.144 141.881 47.1439C147.602 45.1438 152.628 42.8172 156.755 40.1233H156.796Z" fill="url(#paint1_linear_501_4738)"/>
<path d="M156.759 66.7776L156.187 70.5328C155.86 72.7369 153.695 75.186 149.976 77.5942C146.257 80.0025 140.904 82.3699 134.161 84.4924C127.419 86.6149 119.287 88.4109 109.929 89.717C100.571 91.0232 89.9872 91.7987 78.3818 91.7987C66.7764 91.7987 56.2334 91.0232 46.8755 89.717C37.5176 88.4109 29.3856 86.5741 22.643 84.4924C15.9004 82.4107 10.588 80.0025 6.8694 77.5942C3.15075 75.186 1.02581 72.7369 0.658037 70.5328L0.0859375 66.7776C0.412851 69.0225 2.57866 71.4716 6.33816 73.8798C10.0977 76.2881 15.4509 78.6963 22.2343 80.8188C29.0178 82.9413 37.2315 84.7781 46.6303 86.0843C56.0291 87.3904 66.6946 88.166 78.3818 88.166C90.069 88.166 100.735 87.3904 110.133 86.0843C119.532 84.7781 127.746 82.9413 134.57 80.8188C141.394 78.6963 146.707 76.2881 150.466 73.8798C154.226 71.4716 156.392 68.9817 156.719 66.7776H156.759Z" fill="#6E6E6E"/>
<mask id="mask1_501_4738" style="mask-type:luminance" maskUnits="userSpaceOnUse" x="0" y="66" width="157" height="26">
<path d="M156.763 66.7773L156.191 70.5326C155.864 72.7367 153.698 75.1857 149.98 77.594C146.261 80.0022 140.908 82.3696 134.165 84.4921C127.423 86.6146 119.291 88.4106 109.933 89.7168C100.575 91.0229 89.9911 91.7985 78.3857 91.7985C66.7803 91.7985 56.2373 91.0229 46.8794 89.7168C37.5215 88.4106 29.3895 86.5738 22.6469 84.4921C15.9043 82.4104 10.5919 80.0022 6.8733 77.594C3.15466 75.1857 1.02972 72.7367 0.661943 70.5326L0.0898438 66.7773C0.416758 69.0223 2.58256 71.4714 6.34207 73.8796C10.1016 76.2878 15.4548 78.696 22.2383 80.8186C29.0217 82.9411 37.2354 84.7779 46.6342 86.084C56.033 87.3902 66.6985 88.1657 78.3857 88.1657C90.0729 88.1657 100.738 87.3902 110.137 86.084C119.536 84.7779 127.75 82.9411 134.574 80.8186C141.398 78.696 146.711 76.2878 150.47 73.8796C154.23 71.4714 156.395 68.9815 156.722 66.7773H156.763Z" fill="white"/>
</mask>
<g mask="url(#mask1_501_4738)">
<path d="M156.76 66.7773L156.188 70.5326V70.5734L156.76 66.7773Z" fill="#6E6E6E"/>
<path d="M156.761 66.7773L156.189 70.5326C156.189 70.5326 156.189 70.655 156.189 70.7366C156.189 70.8183 156.189 70.8591 156.148 70.9407C156.107 71.0224 156.148 71.0632 156.107 71.1448C156.066 71.2264 156.107 71.2673 156.066 71.3489L156.639 67.5937C156.639 67.5937 156.679 67.4712 156.679 67.3896C156.679 67.308 156.679 67.2671 156.72 67.1855C156.761 67.1039 156.72 67.0631 156.761 66.9814C156.802 66.8998 156.761 66.859 156.761 66.7773Z" fill="#6E6E6E"/>
<path d="M156.558 67.5527L155.986 71.3079C155.986 71.3079 155.904 71.512 155.864 71.5937C155.823 71.6753 155.782 71.7978 155.741 71.8794C155.7 71.961 155.659 72.0835 155.578 72.1651C155.496 72.2468 155.455 72.3692 155.414 72.4508L155.986 68.6956C155.986 68.6956 156.109 68.4915 156.15 68.4099C156.19 68.3283 156.231 68.2058 156.313 68.1242C156.395 68.0425 156.395 67.9201 156.436 67.8385C156.477 67.7568 156.517 67.6344 156.558 67.5527Z" fill="#6E6E6E"/>
<path d="M156.026 68.7366L155.454 72.4918C154.187 74.6551 151.449 76.9409 147.363 79.145C143.276 81.3492 137.841 83.5125 131.221 85.3901C124.601 87.2677 116.796 88.8596 107.929 90.0025C99.0612 91.1454 89.2129 91.7985 78.4248 91.7985C66.8193 91.7985 56.2764 91.0229 46.9184 89.7168C37.5605 88.4106 29.4286 86.5738 22.686 84.4921C15.9434 82.4104 10.631 80.0022 6.91237 77.594C3.19372 75.1857 1.06878 72.7367 0.701005 70.5326L0.128906 66.7773C0.45582 69.0223 2.62162 71.4714 6.38113 73.8796C10.1406 76.2878 15.4939 78.696 22.2773 80.8186C29.0608 82.9411 37.2745 84.7779 46.6733 86.084C56.072 87.3902 66.7376 88.1657 78.4248 88.1657C89.2538 88.1657 99.2247 87.5126 108.133 86.3289C117.041 85.1452 124.928 83.5533 131.589 81.6757C138.25 79.7981 143.726 77.6348 147.853 75.3898C151.98 73.1449 154.759 70.8591 156.026 68.6958" fill="#6E6E6E"/>
</g>
<path d="M156.796 84.2476V110.412C156.796 112.657 154.916 115.146 151.279 117.636C147.642 120.126 142.371 122.575 135.547 124.739C128.722 126.902 120.427 128.82 110.824 130.167C101.221 131.514 90.3508 132.331 78.3776 132.331C66.4044 132.331 55.5345 131.514 45.9723 130.167C36.41 128.82 28.0737 126.902 21.2494 124.739C14.4251 122.575 9.11272 120.085 5.51667 117.636C1.92062 115.187 0 112.657 0 110.412V84.2476C4.12729 86.9007 9.19445 89.2273 14.8746 91.2274C20.5547 93.2274 26.9704 94.9009 33.7947 96.2071C40.619 97.5132 47.8929 98.5337 55.4119 99.1868C62.9309 99.8398 70.6542 100.166 78.3776 100.166C86.1009 100.166 93.8243 99.8398 101.343 99.1868C108.862 98.5337 116.136 97.5132 122.96 96.2071C129.785 94.9009 136.16 93.2274 141.881 91.2274C147.602 89.2273 152.628 86.9007 156.755 84.2476H156.796Z" fill="url(#paint2_linear_501_4738)"/>
<path d="M156.753 111.105C156.549 112.248 156.345 113.391 156.181 114.534C155.814 116.738 153.648 119.187 149.888 121.555C146.129 123.922 140.816 126.289 134.074 128.371C127.331 130.453 119.199 132.249 109.841 133.514C100.483 134.779 89.9404 135.555 78.3758 135.555C66.8112 135.555 56.2682 134.779 46.9103 133.514C37.5524 132.249 29.4613 130.453 22.7187 128.371C15.9761 126.289 10.6638 123.922 6.90425 121.555C3.14474 119.187 1.0198 116.738 0.611162 114.534L0.0390625 111.105C0.406841 113.35 2.57264 115.799 6.37302 118.207C10.1734 120.616 15.5266 122.983 22.3101 125.065C29.0935 127.146 37.2664 128.983 46.706 130.249C56.1456 131.514 66.7295 132.29 78.3758 132.29C90.0221 132.29 100.647 131.514 110.086 130.249C119.526 128.983 127.699 127.146 134.482 125.065C141.266 122.983 146.66 120.616 150.419 118.207C154.179 115.799 156.386 113.35 156.753 111.105Z" fill="#6E6E6E"/>
<mask id="mask2_501_4738" style="mask-type:luminance" maskUnits="userSpaceOnUse" x="0" y="111" width="157" height="25">
<path d="M156.753 111.105C156.549 112.248 156.345 113.391 156.181 114.534C155.814 116.738 153.648 119.187 149.888 121.554C146.129 123.922 140.816 126.289 134.074 128.371C127.331 130.452 119.199 132.248 109.841 133.514C100.483 134.779 89.9404 135.555 78.3758 135.555C66.8112 135.555 56.2682 134.779 46.9103 133.514C37.5524 132.248 29.4613 130.452 22.7187 128.371C15.9761 126.289 10.6638 123.922 6.90425 121.554C3.14474 119.187 1.0198 116.738 0.611162 114.534L0.0390625 111.105C0.406841 113.35 2.57264 115.799 6.37302 118.207C10.1734 120.615 15.5266 122.983 22.3101 125.065C29.0935 127.146 37.2664 128.983 46.706 130.248C56.1456 131.514 66.7295 132.289 78.3758 132.289C90.0221 132.289 100.647 131.514 110.086 130.248C119.526 128.983 127.699 127.146 134.482 125.065C141.266 122.983 146.66 120.615 150.419 118.207C154.179 115.799 156.386 113.35 156.753 111.105Z" fill="white"/>
</mask>
<g mask="url(#mask2_501_4738)">
<path d="M156.757 111.105L156.185 114.534C156.185 114.534 156.185 114.656 156.185 114.697C156.185 114.738 156.185 114.819 156.144 114.86C156.103 114.901 156.144 114.983 156.103 115.023C156.063 115.064 156.103 115.146 156.062 115.187L156.635 111.758C156.635 111.758 156.635 111.636 156.675 111.595C156.716 111.554 156.675 111.472 156.716 111.432C156.757 111.391 156.716 111.309 156.757 111.268C156.798 111.227 156.757 111.146 156.757 111.105Z" fill="#6E6E6E"/>
<path d="M156.593 111.84L156.021 115.269C156.021 115.269 155.94 115.473 155.899 115.554C155.858 115.636 155.817 115.758 155.776 115.84C155.735 115.922 155.694 116.044 155.613 116.126C155.531 116.207 155.49 116.33 155.449 116.411L156.021 112.983C156.021 112.983 156.144 112.779 156.185 112.697C156.226 112.615 156.266 112.493 156.348 112.411C156.43 112.33 156.43 112.207 156.471 112.126C156.512 112.044 156.553 111.921 156.593 111.84Z" fill="#6E6E6E"/>
<path d="M156.024 113.024L155.452 116.452C154.185 118.616 151.447 120.901 147.361 123.065C143.274 125.228 137.839 127.391 131.219 129.269C124.599 131.147 116.794 132.698 107.927 133.84C99.0591 134.983 89.1699 135.636 78.4227 135.636C66.8581 135.636 56.3151 134.861 46.9572 133.596C37.5993 132.33 29.5082 130.534 22.7656 128.453C16.023 126.371 10.7106 124.003 6.95113 121.636C3.19162 119.269 1.06668 116.82 0.658037 114.615L0.0859375 111.187C0.453716 113.432 2.61952 115.881 6.41989 118.289C10.2203 120.697 15.5735 123.065 22.3569 125.146C29.1404 127.228 37.3132 129.065 46.7529 130.33C56.1925 131.596 66.7764 132.371 78.4227 132.371C89.2925 132.371 99.2225 131.718 108.172 130.575C117.121 129.432 124.967 127.84 131.628 125.963C138.289 124.085 143.765 121.963 147.892 119.718C152.019 117.473 154.798 115.228 156.065 113.024" fill="#6E6E6E"/>
</g>
<path d="M156.837 128.371V153.147C156.837 155.392 154.957 157.882 151.32 160.331C147.683 162.78 142.371 165.27 135.587 167.433C128.804 169.597 120.468 171.515 110.865 172.862C101.262 174.209 90.3917 175.025 78.4184 175.025C66.4452 175.025 55.5753 174.209 45.9723 172.862C36.3692 171.515 28.0737 169.597 21.2494 167.433C14.4251 165.27 9.11272 162.821 5.51667 160.331C1.92062 157.841 0 155.392 0 153.147V128.371C4.12729 131.024 9.19445 133.351 14.8746 135.31C20.5547 137.269 26.9704 138.943 33.7947 140.29C40.619 141.637 47.8929 142.616 55.4119 143.269C62.9309 143.922 70.6542 144.249 78.3776 144.249C86.1009 144.249 93.8651 143.922 101.343 143.269C108.821 142.616 116.136 141.596 122.96 140.29C129.785 138.983 136.2 137.31 141.881 135.31C147.561 133.31 152.628 131.024 156.755 128.371H156.837Z" fill="url(#paint3_linear_501_4738)"/>
<path d="M156.753 153.923L156.181 157.066C155.773 159.27 153.566 161.678 149.806 164.086C146.047 166.494 140.694 168.821 133.951 170.862C127.209 172.903 119.077 174.74 109.76 176.005C100.442 177.27 89.8995 178.046 78.3758 178.046C66.8521 178.046 56.3091 177.27 46.9921 176.005C37.675 174.74 29.543 172.944 22.8004 170.862C16.0578 168.78 10.7455 166.454 6.98598 164.086C3.22647 161.719 1.06067 159.311 0.611162 157.066L0.0390625 153.923C0.447705 156.168 2.65437 158.576 6.45475 160.984C10.2551 163.392 15.6083 165.76 22.3918 167.841C29.1753 169.923 37.3481 171.719 46.7469 173.025C56.1456 174.331 66.7295 175.066 78.3758 175.066C90.0221 175.066 100.606 174.291 110.005 173.025C119.403 171.76 127.576 169.923 134.36 167.841C141.143 165.76 146.537 163.392 150.297 160.984C154.056 158.576 156.304 156.168 156.713 153.923H156.753Z" fill="#6E6E6E"/>
<mask id="mask3_501_4738" style="mask-type:luminance" maskUnits="userSpaceOnUse" x="0" y="153" width="157" height="26">
<path d="M156.753 153.923L156.181 157.066C155.773 159.27 153.566 161.678 149.806 164.086C146.047 166.494 140.694 168.821 133.951 170.862C127.209 172.903 119.077 174.74 109.76 176.005C100.442 177.27 89.8995 178.046 78.3758 178.046C66.8521 178.046 56.3091 177.27 46.9921 176.005C37.675 174.74 29.543 172.944 22.8004 170.862C16.0578 168.78 10.7455 166.454 6.98598 164.086C3.22647 161.719 1.06067 159.311 0.611162 157.066L0.0390625 153.923C0.447705 156.168 2.65437 158.576 6.45475 160.984C10.2551 163.392 15.6083 165.76 22.3918 167.841C29.1753 169.923 37.3481 171.719 46.7469 173.025C56.1456 174.331 66.7295 175.066 78.3758 175.066C90.0221 175.066 100.606 174.291 110.005 173.025C119.403 171.76 127.576 169.923 134.36 167.841C141.143 165.76 146.537 163.392 150.297 160.984C154.056 158.576 156.304 156.168 156.713 153.923H156.753Z" fill="white"/>
</mask>
<g mask="url(#mask3_501_4738)">
<path d="M156.759 153.923L156.187 157.066C156.187 157.066 156.187 157.188 156.187 157.229C156.187 157.27 156.187 157.351 156.187 157.392C156.187 157.433 156.187 157.515 156.146 157.555C156.105 157.596 156.146 157.678 156.105 157.719L156.678 154.617C156.678 154.617 156.678 154.494 156.718 154.453C156.759 154.412 156.718 154.331 156.759 154.29C156.8 154.249 156.759 154.168 156.759 154.127C156.759 154.086 156.759 154.004 156.759 153.963" fill="#6E6E6E"/>
<path d="M156.599 154.535L156.027 157.637C156.027 157.637 155.946 157.841 155.905 157.923C155.864 158.004 155.823 158.127 155.782 158.208C155.741 158.29 155.7 158.413 155.66 158.494C155.619 158.576 155.537 158.698 155.496 158.78L156.068 155.678C156.068 155.678 156.191 155.474 156.232 155.392C156.273 155.31 156.313 155.188 156.395 155.106C156.477 155.025 156.477 154.902 156.518 154.821C156.559 154.739 156.599 154.617 156.64 154.535" fill="#6E6E6E"/>
<path d="M156.065 155.718L155.493 158.821C154.226 160.984 151.488 163.229 147.401 165.433C143.315 167.637 137.88 169.76 131.26 171.596C124.64 173.433 116.794 175.025 107.968 176.168C99.1408 177.311 89.2108 177.964 78.4227 177.964C66.899 177.964 56.356 177.188 47.0389 175.923C37.7219 174.658 29.5899 172.862 22.8473 170.78C16.1047 168.698 10.7924 166.372 7.03286 164.004C3.27335 161.637 1.10754 159.229 0.658037 156.984L0.0859375 153.841C0.49458 156.086 2.70125 158.494 6.50162 160.902C10.302 163.31 15.6552 165.678 22.4387 167.76C29.2221 169.841 37.395 171.637 46.7937 172.943C56.1925 174.25 66.7764 174.984 78.4227 174.984C89.2926 174.984 99.2634 174.331 108.172 173.188C117.08 172.045 124.967 170.454 131.669 168.576C138.37 166.698 143.805 164.576 147.933 162.331C152.06 160.086 154.839 157.841 156.106 155.678" fill="#6E6E6E"/>
</g>
<defs>
<linearGradient id="paint0_linear_501_4738" x1="0.0390625" y1="22.0414" x2="156.794" y2="22.0414" gradientUnits="userSpaceOnUse">
<stop stop-color="#F0F2F2"/>
<stop offset="0.18" stop-color="#E7EAEA"/>
<stop offset="0.47" stop-color="#CFD4D6"/>
<stop offset="0.83" stop-color="#A9B2B5"/>
<stop offset="1" stop-color="#95A0A4"/>
</linearGradient>
<linearGradient id="paint1_linear_501_4738" x1="0" y1="64.1648" x2="156.796" y2="64.1648" gradientUnits="userSpaceOnUse">
<stop stop-color="#F0F2F2"/>
<stop offset="0.18" stop-color="#E7EAEA"/>
<stop offset="0.47" stop-color="#CFD4D6"/>
<stop offset="0.83" stop-color="#A9B2B5"/>
<stop offset="1" stop-color="#95A0A4"/>
</linearGradient>
<linearGradient id="paint2_linear_501_4738" x1="0" y1="108.289" x2="156.837" y2="108.289" gradientUnits="userSpaceOnUse">
<stop stop-color="#F0F2F2"/>
<stop offset="0.18" stop-color="#E7EAEA"/>
<stop offset="0.47" stop-color="#CFD4D6"/>
<stop offset="0.83" stop-color="#A9B2B5"/>
<stop offset="1" stop-color="#95A0A4"/>
</linearGradient>
<linearGradient id="paint3_linear_501_4738" x1="0" y1="151.678" x2="156.837" y2="151.678" gradientUnits="userSpaceOnUse">
<stop stop-color="#F0F2F2"/>
<stop offset="0.18" stop-color="#E7EAEA"/>
<stop offset="0.47" stop-color="#CFD4D6"/>
<stop offset="0.83" stop-color="#A9B2B5"/>
<stop offset="1" stop-color="#95A0A4"/>
</linearGradient>
</defs>
</svg>
